{
  "source": "C:\\Users\\Peter\\Desktop\\stuff\\MIUN\\quantitative_research\\video_compression\\videos\\BVI-HD\\BVI-HD_CDVL_videos\\ORIG\\ParkPlay_1920x1080_50fps.mp4",
  "output": "C:\\Users\\Peter\\Desktop\\stuff\\MIUN\\quantitative_research\\video_compression\\compressed_videos\\BVI-HD\\hevc\\2\\ParkPlay_1920x1080_50fps_hevc.mp4",
  "codec": "hevc",
  "ok": "Input #0, mov,mp4,m4a,3gp,3g2,mj2, from 'C:\\Users\\Peter\\Desktop\\stuff\\MIUN\\quantitative_research\\video_compression\\videos\\BVI-HD\\BVI-HD_CDVL_videos\\ORIG\\ParkPlay_1920x1080_50fps.mp4':\n  Metadata:\n    major_brand     : isom\n    minor_version   : 512\n    compatible_brands: isomiso2avc1mp41\n    encoder         : Lavf54.28.101\n  Duration: 00:00:05.00, start: 0.000000, bitrate: 620563 kb/s\n  Stream #0:0[0x1](und): Video: h264 (High 4:4:4 Predictive) (avc1 / 0x31637661), yuv420p(progressive), 1920x1080, 620558 kb/s, 50 fps, 50 tbr, 50 tbn (default)\n    Metadata:\n      handler_name    : VideoHandler\n      vendor_id       : [0][0][0][0]\n[out#0/mp4 @ 000002ed72897d80] Codec AVOption b:a (set bitrate (in bits/s)) has not been used for any stream. The most likely reason is either wrong type (e.g. a video option with no video streams) or that it is a private option of some decoder which was not actually used for any stream.\nStream mapping:\n  Stream #0:0 -> #0:0 (h264 (native) -> hevc (libx265))\nPress [q] to stop, [?] for help\n[libx265 @ 000002ed733e0b40] Unknown option: \"aq-mode.\nx265 [info]: HEVC encoder version 4.1+190-8f11c33ac\nx265 [info]: build info [Windows][GCC 15.1.0][64 bit] 10bit\nx265 [info]: using cpu capabilities: MMX2 SSE2Fast LZCNT SSSE3 SSE4.2 AVX FMA3 BMI2 AVX2\nx265 [info]: Main 10 profile, Level-4.1 (Main tier)\nx265 [info]: Thread pool created using 12 threads\nx265 [info]: Slices                              : 1\nx265 [info]: frame threads / pool features       : 3 / wpp(17 rows)\nx265 [info]: Coding QT: max CU size, min CU size : 64 / 8\nx265 [info]: Residual QT: max TU size, max depth : 32 / 1 inter / 1 intra\nx265 [info]: ME / range / subpel / merge         : star / 57 / 3 / 3\nx265 [info]: Keyframe min / max / scenecut / bias  : 25 / 250 / 40 / 5.00 \nx265 [info]: Lookahead / bframes / badapt        : 25 / 4 / 2\nx265 [info]: b-pyramid / weightp / weightb       : 1 / 1 / 0\nx265 [info]: References / ref-limit  cu / depth  : 4 / on / on\nx265 [info]: AQ: mode / str / qg-size / cu-tree  : 2 / 1.0 / 32 / 1\nx265 [info]: Rate Control / qCompress            : ABR-2000 kbps / 0.60\nx265 [info]: VBV/HRD buffer / max-rate / init    : 2000 / 2000 / 0.750\nx265 [info]: tools: rect limit-modes rd=4 psy-rd=2.00 rdoq=2 psy-rdoq=1.00\nx265 [info]: tools: rskip mode=1 signhide tmvp strong-intra-smoothing lslices=4\nx265 [info]: tools: deblock sao dhdr10-info\nOutput #0, mp4, to 'C:\\Users\\Peter\\Desktop\\stuff\\MIUN\\quantitative_research\\video_compression\\compressed_videos\\BVI-HD\\hevc\\2\\ParkPlay_1920x1080_50fps_hevc.mp4':\n  Metadata:\n    major_brand     : isom\n    minor_version   : 512\n    compatible_brands: isomiso2avc1mp41\n    encoder         : Lavf62.3.100\n  Stream #0:0(und): Video: hevc (hev1 / 0x31766568), yuv420p10le(tv, progressive), 1920x1080, q=2-31, 2000 kb/s, 50 fps, 12800 tbn (default)\n    Metadata:\n      encoder         : Lavc62.11.100 libx265\n      handler_name    : VideoHandler\n      vendor_id       : [0][0][0][0]\n    Side data:\n      cpb: bitrate max/min/avg: 2000000/0/2000000 buffer size: 2000000 vbv_delay: N/A\nframe=    0 fps=0.0 q=0.0 size=       0KiB time=N/A bitrate=N/A speed=N/A elapsed=0:00:00.52    \nframe=    0 fps=0.0 q=0.0 size=       0KiB time=N/A bitrate=N/A speed=N/A elapsed=0:00:01.15    \nframe=    0 fps=0.0 q=0.0 size=       0KiB time=N/A bitrate=N/A speed=N/A elapsed=0:00:01.71    \nframe=    0 fps=0.0 q=0.0 size=       0KiB time=N/A bitrate=N/A speed=N/A elapsed=0:00:02.25    \nframe=    0 fps=0.0 q=0.0 size=       0KiB time=N/A bitrate=N/A speed=N/A elapsed=0:00:02.76    \nframe=    0 fps=0.0 q=0.0 size=       0KiB time=N/A bitrate=N/A speed=N/A elapsed=0:00:03.31    \nframe=    0 fps=0.0 q=0.0 size=       0KiB time=N/A bitrate=N/A speed=N/A elapsed=0:00:03.91    \nframe=    0 fps=0.0 q=0.0 size=       0KiB time=N/A bitrate=N/A speed=N/A elapsed=0:00:04.50    \nframe=    0 fps=0.0 q=0.0 size=       0KiB time=N/A bitrate=N/A speed=N/A elapsed=0:00:05.20    \nframe=    0 fps=0.0 q=0.0 size=       0KiB time=N/A bitrate=N/A speed=N/A elapsed=0:00:05.76    \nframe=    0 fps=0.0 q=0.0 size=       0KiB time=N/A bitrate=N/A speed=N/A elapsed=0:00:06.28    \nframe=    0 fps=0.0 q=0.0 size=       0KiB time=N/A bitrate=N/A speed=N/A elapsed=0:00:06.81    \nframe=    0 fps=0.0 q=0.0 size=       0KiB time=N/A bitrate=N/A speed=N/A elapsed=0:00:07.36    \nframe=    0 fps=0.0 q=0.0 size=       0KiB time=N/A bitrate=N/A speed=N/A elapsed=0:00:07.93    \nframe=    0 fps=0.0 q=0.0 size=       0KiB time=N/A bitrate=N/A speed=N/A elapsed=0:00:08.51    \nframe=    0 fps=0.0 q=0.0 size=       0KiB time=N/A bitrate=N/A speed=N/A elapsed=0:00:09.14    \nframe=    0 fps=0.0 q=0.0 size=       0KiB time=N/A bitrate=N/A speed=N/A elapsed=0:00:09.68    \nframe=    0 fps=0.0 q=0.0 size=       0KiB time=N/A bitrate=N/A speed=N/A elapsed=0:00:10.21    \nframe=    0 fps=0.0 q=0.0 size=       0KiB time=N/A bitrate=N/A speed=N/A elapsed=0:00:10.79    \nframe=    0 fps=0.0 q=0.0 size=       0KiB time=N/A bitrate=N/A speed=N/A elapsed=0:00:11.32    \nframe=    0 fps=0.0 q=0.0 size=       0KiB time=N/A bitrate=N/A speed=N/A elapsed=0:00:11.84    \nframe=    0 fps=0.0 q=0.0 size=       0KiB time=N/A bitrate=N/A speed=N/A elapsed=0:00:12.42    \nframe=    0 fps=0.0 q=0.0 size=       0KiB time=N/A bitrate=N/A speed=N/A elapsed=0:00:12.95    \nframe=    0 fps=0.0 q=0.0 size=       0KiB time=N/A bitrate=N/A speed=N/A elapsed=0:00:13.55    \nframe=    0 fps=0.0 q=0.0 size=       0KiB time=N/A bitrate=N/A speed=N/A elapsed=0:00:14.10    \nframe=    0 fps=0.0 q=0.0 size=       0KiB time=N/A bitrate=N/A speed=N/A elapsed=0:00:14.68    \nframe=    0 fps=0.0 q=0.0 size=       0KiB time=N/A bitrate=N/A speed=N/A elapsed=0:00:15.25    \nframe=    0 fps=0.0 q=0.0 size=       0KiB time=N/A bitrate=N/A speed=N/A elapsed=0:00:15.78    \nframe=    1 fps=0.1 q=44.3 size=       0KiB time=-00:00:00.02 bitrate=N/A speed=N/A elapsed=0:00:16.30    \nframe=    1 fps=0.1 q=44.3 size=       0KiB time=-00:00:00.02 bitrate=N/A speed=N/A elapsed=0:00:16.84    \nframe=    1 fps=0.1 q=44.3 size=       0KiB time=-00:00:00.02 bitrate=N/A speed=N/A elapsed=0:00:17.43    \nframe=    1 fps=0.1 q=44.3 size=       0KiB time=-00:00:00.02 bitrate=N/A speed=N/A elapsed=0:00:17.97    \nframe=    1 fps=0.1 q=44.3 size=       0KiB time=-00:00:00.02 bitrate=N/A speed=N/A elapsed=0:00:18.52    \nframe=    1 fps=0.1 q=44.3 size=       0KiB time=-00:00:00.02 bitrate=N/A speed=N/A elapsed=0:00:19.04    \nframe=    2 fps=0.1 q=49.3 size=       0KiB time=00:00:00.00 bitrate=N/A speed=   0x elapsed=0:00:19.55    \nframe=    3 fps=0.1 q=50.9 size=       0KiB time=00:00:00.02 bitrate=  17.6kbits/s speed=0.000994x elapsed=0:00:20.11    \nframe=    3 fps=0.1 q=50.9 size=       0KiB time=00:00:00.02 bitrate=  17.6kbits/s speed=0.000968x elapsed=0:00:20.66    \nframe=    3 fps=0.1 q=50.9 size=       0KiB time=00:00:00.02 bitrate=  17.6kbits/s speed=0.000943x elapsed=0:00:21.20    \nframe=    3 fps=0.1 q=50.9 size=       0KiB time=00:00:00.02 bitrate=  17.6kbits/s speed=0.000921x elapsed=0:00:21.72    \nframe=    3 fps=0.1 q=50.9 size=       0KiB time=00:00:00.02 bitrate=  17.6kbits/s speed=0.000897x elapsed=0:00:22.28    \nframe=    3 fps=0.1 q=50.9 size=       0KiB time=00:00:00.02 bitrate=  17.6kbits/s speed=0.000875x elapsed=0:00:22.85    \nframe=    4 fps=0.2 q=51.0 size=       0KiB time=00:00:00.04 bitrate=   8.8kbits/s speed=0.00171x elapsed=0:00:23.38    \nframe=    4 fps=0.2 q=51.0 size=       0KiB time=00:00:00.04 bitrate=   8.8kbits/s speed=0.00167x elapsed=0:00:23.92    \nframe=    4 fps=0.2 q=51.0 size=       0KiB time=00:00:00.04 bitrate=   8.8kbits/s speed=0.00163x elapsed=0:00:24.46    \nframe=    4 fps=0.2 q=51.0 size=       0KiB time=00:00:00.04 bitrate=   8.8kbits/s speed=0.0016x elapsed=0:00:25.01    \nframe=    4 fps=0.2 q=51.0 size=       0KiB time=00:00:00.04 bitrate=   8.8kbits/s speed=0.00157x elapsed=0:00:25.53    \nframe=    4 fps=0.2 q=51.0 size=       0KiB time=00:00:00.04 bitrate=   8.8kbits/s speed=0.00153x elapsed=0:00:26.06    \nframe=    4 fps=0.2 q=51.0 size=       0KiB time=00:00:00.04 bitrate=   8.8kbits/s speed=0.0015x elapsed=0:00:26.61    \nframe=    5 fps=0.2 q=50.3 size=       0KiB time=00:00:00.06 bitrate=   5.9kbits/s speed=0.00221x elapsed=0:00:27.17    \nframe=    5 fps=0.2 q=50.3 size=       0KiB time=00:00:00.06 bitrate=   5.9kbits/s speed=0.00217x elapsed=0:00:27.71    \nframe=    5 fps=0.2 q=50.3 size=       0KiB time=00:00:00.06 bitrate=   5.9kbits/s speed=0.00212x elapsed=0:00:28.24    \nframe=    5 fps=0.2 q=50.3 size=       0KiB time=00:00:00.06 bitrate=   5.9kbits/s speed=0.00208x elapsed=0:00:28.77    \nframe=    6 fps=0.2 q=45.1 size=       0KiB time=00:00:00.08 bitrate=   4.4kbits/s speed=0.00273x elapsed=0:00:29.31    \nframe=    6 fps=0.2 q=45.1 size=       0KiB time=00:00:00.08 bitrate=   4.4kbits/s speed=0.00268x elapsed=0:00:29.84    \nframe=    6 fps=0.2 q=45.1 size=       0KiB time=00:00:00.08 bitrate=   4.4kbits/s speed=0.00263x elapsed=0:00:30.38    \nframe=    6 fps=0.2 q=45.1 size=       0KiB time=00:00:00.08 bitrate=   4.4kbits/s speed=0.00259x elapsed=0:00:30.92    \nframe=    7 fps=0.2 q=47.9 size=       0KiB time=00:00:00.10 bitrate=   3.5kbits/s speed=0.00318x elapsed=0:00:31.48    \nframe=    7 fps=0.2 q=47.9 size=       0KiB time=00:00:00.10 bitrate=   3.5kbits/s speed=0.00311x elapsed=0:00:32.11    \nframe=    7 fps=0.2 q=47.9 size=       0KiB time=00:00:00.10 bitrate=   3.5kbits/s speed=0.00306x elapsed=0:00:32.71    \nframe=    7 fps=0.2 q=47.9 size=       0KiB time=00:00:00.10 bitrate=   3.5kbits/s speed=0.003x elapsed=0:00:33.32    \nframe=    7 fps=0.2 q=47.9 size=       0KiB time=00:00:00.10 bitrate=   3.5kbits/s speed=0.00295x elapsed=0:00:33.85    \nframe=    7 fps=0.2 q=47.9 size=       0KiB time=00:00:00.10 bitrate=   3.5kbits/s speed=0.0029x elapsed=0:00:34.46    \nframe=    7 fps=0.2 q=47.9 size=       0KiB time=00:00:00.10 bitrate=   3.5kbits/s speed=0.00285x elapsed=0:00:35.05    \nframe=    7 fps=0.2 q=47.9 size=       0KiB time=00:00:00.10 bitrate=   3.5kbits/s speed=0.00281x elapsed=0:00:35.57    \nframe=    7 fps=0.2 q=47.9 size=       0KiB time=00:00:00.10 bitrate=   3.5kbits/s speed=0.00277x elapsed=0:00:36.11    \nframe=    7 fps=0.2 q=47.9 size=       0KiB time=00:00:00.10 bitrate=   3.5kbits/s speed=0.00273x elapsed=0:00:36.64    \nframe=    8 fps=0.2 q=47.8 size=       0KiB time=00:00:00.12 bitrate=   2.9kbits/s speed=0.00323x elapsed=0:00:37.18    \nframe=    8 fps=0.2 q=47.8 size=       0KiB time=00:00:00.12 bitrate=   2.9kbits/s speed=0.00318x elapsed=0:00:37.77    \nframe=    8 fps=0.2 q=47.8 size=       0KiB time=00:00:00.12 bitrate=   2.9kbits/s speed=0.00313x elapsed=0:00:38.32    \nframe=    8 fps=0.2 q=47.8 size=       0KiB time=00:00:00.12 bitrate=   2.9kbits/s speed=0.00309x elapsed=0:00:38.86    \nframe=    8 fps=0.2 q=47.8 size=       0KiB time=00:00:00.12 bitrate=   2.9kbits/s speed=0.00304x elapsed=0:00:39.45    \nframe=    8 fps=0.2 q=47.8 size=       0KiB time=00:00:00.12 bitrate=   2.9kbits/s speed=0.003x elapsed=0:00:39.99    \nframe=    8 fps=0.2 q=47.8 size=       0KiB time=00:00:00.12 bitrate=   2.9kbits/s speed=0.00296x elapsed=0:00:40.56    \nframe=    8 fps=0.2 q=47.8 size=       0KiB time=00:00:00.12 bitrate=   2.9kbits/s speed=0.00292x elapsed=0:00:41.15    \nframe=    8 fps=0.2 q=47.8 size=       0KiB time=00:00:00.12 bitrate=   2.9kbits/s speed=0.00288x elapsed=0:00:41.68    \nframe=    8 fps=0.2 q=47.8 size=       0KiB time=00:00:00.12 bitrate=   2.9kbits/s speed=0.00284x elapsed=0:00:42.25    \nframe=    8 fps=0.2 q=47.8 size=       0KiB time=00:00:00.12 bitrate=   2.9kbits/s speed=0.0028x elapsed=0:00:42.79    \nframe=    8 fps=0.2 q=47.8 size=       0KiB time=00:00:00.12 bitrate=   2.9kbits/s speed=0.00277x elapsed=0:00:43.35    \nframe=    9 fps=0.2 q=48.1 size=       0KiB time=00:00:00.14 bitrate=   2.5kbits/s speed=0.00319x elapsed=0:00:43.95    \nframe=    9 fps=0.2 q=48.1 size=       0KiB time=00:00:00.14 bitrate=   2.5kbits/s speed=0.00315x elapsed=0:00:44.50    \nframe=   10 fps=0.2 q=42.3 size=       0KiB time=00:00:00.16 bitrate=   2.2kbits/s speed=0.00355x elapsed=0:00:45.06    \nframe=   10 fps=0.2 q=42.3 size=       0KiB time=00:00:00.16 bitrate=   2.2kbits/s speed=0.00351x elapsed=0:00:45.62    \nframe=   10 fps=0.2 q=42.3 size=       0KiB time=00:00:00.16 bitrate=   2.2kbits/s speed=0.00347x elapsed=0:00:46.16    \nframe=   10 fps=0.2 q=42.3 size=       0KiB time=00:00:00.16 bitrate=   2.2kbits/s speed=0.00342x elapsed=0:00:46.72    \nframe=   11 fps=0.2 q=45.6 size=       0KiB time=00:00:00.18 bitrate=   2.0kbits/s speed=0.00381x elapsed=0:00:47.30    \nframe=   11 fps=0.2 q=45.6 size=       0KiB time=00:00:00.18 bitrate=   2.0kbits/s speed=0.00376x elapsed=0:00:47.83    \nframe=   11 fps=0.2 q=45.6 size=       0KiB time=00:00:00.18 bitrate=   2.0kbits/s speed=0.00372x elapsed=0:00:48.36    \nframe=   11 fps=0.2 q=45.6 size=       0KiB time=00:00:00.18 bitrate=   2.0kbits/s speed=0.00368x elapsed=0:00:48.92    \nframe=   11 fps=0.2 q=45.6 size=       0KiB time=00:00:00.18 bitrate=   2.0kbits/s speed=0.00363x elapsed=0:00:49.51    \nframe=   11 fps=0.2 q=45.6 size=       0KiB time=00:00:00.18 bitrate=   2.0kbits/s speed=0.0036x elapsed=0:00:50.05    \nframe=   11 fps=0.2 q=45.6 size=       0KiB time=00:00:00.18 bitrate=   2.0kbits/s speed=0.00356x elapsed=0:00:50.61    \nframe=   11 fps=0.2 q=45.6 size=       0KiB time=00:00:00.18 bitrate=   2.0kbits/s speed=0.00352x elapsed=0:00:51.13    \nframe=   11 fps=0.2 q=45.6 size=       0KiB time=00:00:00.18 bitrate=   2.0kbits/s speed=0.00348x elapsed=0:00:51.67    \nframe=   12 fps=0.2 q=46.8 size=       0KiB time=00:00:00.20 bitrate=   1.8kbits/s speed=0.00383x elapsed=0:00:52.25    \nframe=   12 fps=0.2 q=46.8 size=       0KiB time=00:00:00.20 bitrate=   1.8kbits/s speed=0.00379x elapsed=0:00:52.80    \nframe=   12 fps=0.2 q=46.8 size=       0KiB time=00:00:00.20 bitrate=   1.8kbits/s speed=0.00375x elapsed=0:00:53.37    \nframe=   12 fps=0.2 q=46.8 size=       0KiB time=00:00:00.20 bitrate=   1.8kbits/s speed=0.00371x elapsed=0:00:53.93    \nframe=   12 fps=0.2 q=46.8 size=       0KiB time=00:00:00.20 bitrate=   1.8kbits/s speed=0.00367x elapsed=0:00:54.55    \nframe=   12 fps=0.2 q=46.8 size=       0KiB time=00:00:00.20 bitrate=   1.8kbits/s speed=0.00363x elapsed=0:00:55.10    \nframe=   12 fps=0.2 q=46.8 size=       0KiB time=00:00:00.20 bitrate=   1.8kbits/s speed=0.00359x elapsed=0:00:55.68    \nframe=   12 fps=0.2 q=46.8 size=       0KiB time=00:00:00.20 bitrate=   1.8kbits/s speed=0.00356x elapsed=0:00:56.24    \nframe=   12 fps=0.2 q=46.8 size=       0KiB time=00:00:00.20 bitrate=   1.8kbits/s speed=0.00352x elapsed=0:00:56.80    \nframe=   12 fps=0.2 q=46.8 size=       0KiB time=00:00:00.20 bitrate=   1.8kbits/s speed=0.00349x elapsed=0:00:57.35    \nframe=   12 fps=0.2 q=46.8 size=       0KiB time=00:00:00.20 bitrate=   1.8kbits/s speed=0.00345x elapsed=0:00:57.91    \nframe=   12 fps=0.2 q=46.8 size=       0KiB time=00:00:00.20 bitrate=   1.8kbits/s speed=0.00342x elapsed=0:00:58.44    \nframe=   12 fps=0.2 q=46.8 size=       0KiB time=00:00:00.20 bitrate=   1.8kbits/s speed=0.00339x elapsed=0:00:58.97    \nframe=   13 fps=0.2 q=47.0 size=       0KiB time=00:00:00.22 bitrate=   1.6kbits/s speed=0.0037x elapsed=0:00:59.49    \nframe=   13 fps=0.2 q=47.0 size=       0KiB time=00:00:00.22 bitrate=   1.6kbits/s speed=0.00366x elapsed=0:01:00.02    \nframe=   13 fps=0.2 q=47.0 size=       0KiB time=00:00:00.22 bitrate=   1.6kbits/s speed=0.00363x elapsed=0:01:00.58    \nframe=   14 fps=0.2 q=42.9 size=       0KiB time=00:00:00.24 bitrate=   1.5kbits/s speed=0.00393x elapsed=0:01:01.14    \nframe=   14 fps=0.2 q=42.9 size=       0KiB time=00:00:00.24 bitrate=   1.5kbits/s speed=0.00389x elapsed=0:01:01.72    \nframe=   14 fps=0.2 q=42.9 size=       0KiB time=00:00:00.24 bitrate=   1.5kbits/s speed=0.00385x elapsed=0:01:02.31    \nframe=   14 fps=0.2 q=42.9 size=       0KiB time=00:00:00.24 bitrate=   1.5kbits/s speed=0.00381x elapsed=0:01:02.97    \nframe=   14 fps=0.2 q=42.9 size=       0KiB time=00:00:00.24 bitrate=   1.5kbits/s speed=0.00377x elapsed=0:01:03.62    \nframe=   14 fps=0.2 q=42.9 size=       0KiB time=00:00:00.24 bitrate=   1.5kbits/s speed=0.00373x elapsed=0:01:04.25    \nframe=   14 fps=0.2 q=42.9 size=       0KiB time=00:00:00.24 bitrate=   1.5kbits/s speed=0.0037x elapsed=0:01:04.86    \nframe=   14 fps=0.2 q=42.9 size=       0KiB time=00:00:00.24 bitrate=   1.5kbits/s speed=0.00366x elapsed=0:01:05.52    \nframe=   14 fps=0.2 q=42.9 size=       0KiB time=00:00:00.24 bitrate=   1.5kbits/s speed=0.00363x elapsed=0:01:06.17    \nframe=   14 fps=0.2 q=42.9 size=       0KiB time=00:00:00.24 bitrate=   1.5kbits/s speed=0.00359x elapsed=0:01:06.79    \nframe=   14 fps=0.2 q=42.9 size=       0KiB time=00:00:00.24 bitrate=   1.5kbits/s speed=0.00356x elapsed=0:01:07.41    \nframe=   14 fps=0.2 q=42.9 size=       0KiB time=00:00:00.24 bitrate=   1.5kbits/s speed=0.00353x elapsed=0:01:08.02    \nframe=   14 fps=0.2 q=42.9 size=       0KiB time=00:00:00.24 bitrate=   1.5kbits/s speed=0.0035x elapsed=0:01:08.62    \nframe=   14 fps=0.2 q=42.9 size=       0KiB time=00:00:00.24 bitrate=   1.5kbits/s speed=0.00347x elapsed=0:01:09.20    \nframe=   14 fps=0.2 q=42.9 size=       0KiB time=00:00:00.24 bitrate=   1.5kbits/s speed=0.00344x elapsed=0:01:09.72    \nframe=   15 fps=0.2 q=45.2 size=       0KiB time=00:00:00.26 bitrate=   1.4kbits/s speed=0.0037x elapsed=0:01:10.27    \nframe=   15 fps=0.2 q=45.2 size=       0KiB time=00:00:00.26 bitrate=   1.4kbits/s speed=0.00367x elapsed=0:01:10.83    \nframe=   15 fps=0.2 q=45.2 size=       0KiB time=00:00:00.26 bitrate=   1.4kbits/s speed=0.00364x elapsed=0:01:11.37    \nframe=   15 fps=0.2 q=45.2 size=       0KiB time=00:00:00.26 bitrate=   1.4kbits/s speed=0.00362x elapsed=0:01:11.88    \nframe=   15 fps=0.2 q=45.2 size=       0KiB time=00:00:00.26 bitrate=   1.4kbits/s speed=0.00359x elapsed=0:01:12.42    \nframe=   15 fps=0.2 q=45.2 size=       0KiB time=00:00:00.26 bitrate=   1.4kbits/s speed=0.00356x elapsed=0:01:12.94    \nframe=   15 fps=0.2 q=45.2 size=       0KiB time=00:00:00.26 bitrate=   1.4kbits/s speed=0.00354x elapsed=0:01:13.46    \nframe=   15 fps=0.2 q=45.2 size=       0KiB time=00:00:00.26 bitrate=   1.4kbits/s speed=0.00351x elapsed=0:01:13.99    \nframe=   16 fps=0.2 q=46.8 size=       0KiB time=00:00:00.28 bitrate=   1.3kbits/s speed=0.00376x elapsed=0:01:14.50    \nframe=   16 fps=0.2 q=46.8 size=       0KiB time=00:00:00.28 bitrate=   1.3kbits/s speed=0.00373x elapsed=0:01:15.02    \nframe=   17 fps=0.2 q=47.1 size=       0KiB time=00:00:00.30 bitrate=   1.2kbits/s speed=0.00397x elapsed=0:01:15.54    \nframe=   17 fps=0.2 q=47.1 size=       0KiB time=00:00:00.30 bitrate=   1.2kbits/s speed=0.00394x elapsed=0:01:16.08    \nframe=   17 fps=0.2 q=47.1 size=       0KiB time=00:00:00.30 bitrate=   1.2kbits/s speed=0.00392x elapsed=0:01:16.60    \nframe=   17 fps=0.2 q=47.1 size=       0KiB time=00:00:00.30 bitrate=   1.2kbits/s speed=0.00389x elapsed=0:01:17.13    \nframe=   18 fps=0.2 q=42.4 size=       0KiB time=00:00:00.32 bitrate=   1.1kbits/s speed=0.00412x elapsed=0:01:17.68    \nframe=   19 fps=0.2 q=44.8 size=       0KiB time=00:00:00.34 bitrate=   1.0kbits/s speed=0.00435x elapsed=0:01:18.19    \nframe=   19 fps=0.2 q=44.8 size=       0KiB time=00:00:00.34 bitrate=   1.0kbits/s speed=0.00432x elapsed=0:01:18.72    \nframe=   19 fps=0.2 q=44.8 size=       0KiB time=00:00:00.34 bitrate=   1.0kbits/s speed=0.00429x elapsed=0:01:19.25    \nframe=   19 fps=0.2 q=44.8 size=       0KiB time=00:00:00.34 bitrate=   1.0kbits/s speed=0.00426x elapsed=0:01:19.77    \nframe=   19 fps=0.2 q=44.8 size=       0KiB time=00:00:00.34 bitrate=   1.0kbits/s speed=0.00423x elapsed=0:01:20.32    \nframe=   19 fps=0.2 q=44.8 size=       0KiB time=00:00:00.34 bitrate=   1.0kbits/s speed=0.0042x elapsed=0:01:20.86    \nframe=   19 fps=0.2 q=44.8 size=       0KiB time=00:00:00.34 bitrate=   1.0kbits/s speed=0.00418x elapsed=0:01:21.39    \nframe=   20 fps=0.2 q=46.9 size=       0KiB time=00:00:00.36 bitrate=   1.0kbits/s speed=0.00439x elapsed=0:01:21.92    \nframe=   20 fps=0.2 q=46.9 size=       0KiB time=00:00:00.36 bitrate=   1.0kbits/s speed=0.00437x elapsed=0:01:22.43    \nframe=   20 fps=0.2 q=46.9 size=       0KiB time=00:00:00.36 bitrate=   1.0kbits/s speed=0.00434x elapsed=0:01:22.94    \nframe=   21 fps=0.3 q=46.7 size=       0KiB time=00:00:00.38 bitrate=   0.9kbits/s speed=0.00455x elapsed=0:01:23.47    \nframe=   21 fps=0.2 q=46.7 size=       0KiB time=00:00:00.38 bitrate=   0.9kbits/s speed=0.00452x elapsed=0:01:24.02    \nframe=   21 fps=0.2 q=46.7 size=       0KiB time=00:00:00.38 bitrate=   0.9kbits/s speed=0.00449x elapsed=0:01:24.54    \nframe=   21 fps=0.2 q=46.7 size=       0KiB time=00:00:00.38 bitrate=   0.9kbits/s speed=0.00446x elapsed=0:01:25.13    \nframe=   22 fps=0.3 q=42.4 size=       0KiB time=00:00:00.40 bitrate=   0.9kbits/s speed=0.00467x elapsed=0:01:25.64    \nframe=   22 fps=0.3 q=42.4 size=       0KiB time=00:00:00.40 bitrate=   0.9kbits/s speed=0.00464x elapsed=0:01:26.21    \nframe=   22 fps=0.3 q=42.4 size=       0KiB time=00:00:00.40 bitrate=   0.9kbits/s speed=0.00461x elapsed=0:01:26.79    \nframe=   22 fps=0.3 q=42.4 size=       0KiB time=00:00:00.40 bitrate=   0.9kbits/s speed=0.00457x elapsed=0:01:27.44    \nframe=   22 fps=0.2 q=42.4 size=       0KiB time=00:00:00.40 bitrate=   0.9kbits/s speed=0.00454x elapsed=0:01:28.08    \nframe=   22 fps=0.2 q=42.4 size=       0KiB time=00:00:00.40 bitrate=   0.9kbits/s speed=0.00451x elapsed=0:01:28.71    \nframe=   22 fps=0.2 q=42.4 size=       0KiB time=00:00:00.40 bitrate=   0.9kbits/s speed=0.00448x elapsed=0:01:29.23    \nframe=   22 fps=0.2 q=42.4 size=       0KiB time=00:00:00.40 bitrate=   0.9kbits/s speed=0.00446x elapsed=0:01:29.77    \nframe=   22 fps=0.2 q=42.4 size=       0KiB time=00:00:00.40 bitrate=   0.9kbits/s speed=0.00443x elapsed=0:01:30.30    \nframe=   22 fps=0.2 q=42.4 size=       0KiB time=00:00:00.40 bitrate=   0.9kbits/s speed=0.0044x elapsed=0:01:30.83    \nframe=   22 fps=0.2 q=42.4 size=       0KiB time=00:00:00.40 bitrate=   0.9kbits/s speed=0.00438x elapsed=0:01:31.37    \nframe=   22 fps=0.2 q=42.4 size=       0KiB time=00:00:00.40 bitrate=   0.9kbits/s speed=0.00435x elapsed=0:01:31.91    \nframe=   23 fps=0.2 q=44.5 size=       0KiB time=00:00:00.42 bitrate=   0.8kbits/s speed=0.00454x elapsed=0:01:32.45    \nframe=   23 fps=0.2 q=44.5 size=       0KiB time=00:00:00.42 bitrate=   0.8kbits/s speed=0.00452x elapsed=0:01:33.00    \nframe=   23 fps=0.2 q=44.5 size=       0KiB time=00:00:00.42 bitrate=   0.8kbits/s speed=0.00449x elapsed=0:01:33.58    \nframe=   23 fps=0.2 q=44.5 size=       0KiB time=00:00:00.42 bitrate=   0.8kbits/s speed=0.00446x elapsed=0:01:34.10    \nframe=   23 fps=0.2 q=44.5 size=       0KiB time=00:00:00.42 bitrate=   0.8kbits/s speed=0.00444x elapsed=0:01:34.65    \nframe=   23 fps=0.2 q=44.5 size=       0KiB time=00:00:00.42 bitrate=   0.8kbits/s speed=0.00441x elapsed=0:01:35.23    \nframe=   24 fps=0.3 q=46.7 size=       0KiB time=00:00:00.44 bitrate=   0.8kbits/s speed=0.00459x elapsed=0:01:35.80    \nframe=   24 fps=0.2 q=46.7 size=       0KiB time=00:00:00.44 bitrate=   0.8kbits/s speed=0.00456x elapsed=0:01:36.39    \nframe=   24 fps=0.2 q=46.7 size=       0KiB time=00:00:00.44 bitrate=   0.8kbits/s speed=0.00454x elapsed=0:01:36.95    \nframe=   24 fps=0.2 q=46.7 size=       0KiB time=00:00:00.44 bitrate=   0.8kbits/s speed=0.00451x elapsed=0:01:37.51    \nframe=   24 fps=0.2 q=46.7 size=       0KiB time=00:00:00.44 bitrate=   0.8kbits/s speed=0.00448x elapsed=0:01:38.13    \nframe=   24 fps=0.2 q=46.7 size=       0KiB time=00:00:00.44 bitrate=   0.8kbits/s speed=0.00446x elapsed=0:01:38.73    \nframe=   24 fps=0.2 q=46.7 size=       0KiB time=00:00:00.44 bitrate=   0.8kbits/s speed=0.00443x elapsed=0:01:39.33    \nframe=   24 fps=0.2 q=46.7 size=       0KiB time=00:00:00.44 bitrate=   0.8kbits/s speed=0.00441x elapsed=0:01:39.87    \nframe=   25 fps=0.2 q=46.9 size=       0KiB time=00:00:00.46 bitrate=   0.8kbits/s speed=0.00458x elapsed=0:01:40.45    \nframe=   25 fps=0.2 q=46.9 size=       0KiB time=00:00:00.46 bitrate=   0.8kbits/s speed=0.00456x elapsed=0:01:40.97    \nframe=   25 fps=0.2 q=46.9 size=       0KiB time=00:00:00.46 bitrate=   0.8kbits/s speed=0.00453x elapsed=0:01:41.50    \nframe=   26 fps=0.3 q=43.0 size=       0KiB time=00:00:00.48 bitrate=   0.7kbits/s speed=0.0047x elapsed=0:01:42.08    \nframe=   26 fps=0.3 q=43.0 size=       0KiB time=00:00:00.48 bitrate=   0.7kbits/s speed=0.00467x elapsed=0:01:42.71    \nframe=   26 fps=0.3 q=43.0 size=       0KiB time=00:00:00.48 bitrate=   0.7kbits/s speed=0.00465x elapsed=0:01:43.28    \nframe=   26 fps=0.3 q=43.0 size=       0KiB time=00:00:00.48 bitrate=   0.7kbits/s speed=0.00462x elapsed=0:01:43.84    \nframe=   26 fps=0.2 q=43.0 size=       0KiB time=00:00:00.48 bitrate=   0.7kbits/s speed=0.0046x elapsed=0:01:44.39    \nframe=   27 fps=0.3 q=44.9 size=       0KiB time=00:00:00.50 bitrate=   0.7kbits/s speed=0.00476x elapsed=0:01:44.93    \nframe=   27 fps=0.3 q=44.9 size=       0KiB time=00:00:00.50 bitrate=   0.7kbits/s speed=0.00474x elapsed=0:01:45.48    \nframe=   27 fps=0.3 q=44.9 size=       0KiB time=00:00:00.50 bitrate=   0.7kbits/s speed=0.00471x elapsed=0:01:46.11    \nframe=   27 fps=0.3 q=44.9 size=       0KiB time=00:00:00.50 bitrate=   0.7kbits/s speed=0.00469x elapsed=0:01:46.66    \nframe=   27 fps=0.3 q=44.9 size=       0KiB time=00:00:00.50 bitrate=   0.7kbits/s speed=0.00466x elapsed=0:01:47.29    \nframe=   27 fps=0.3 q=44.9 size=       0KiB time=00:00:00.50 bitrate=   0.7kbits/s speed=0.00464x elapsed=0:01:47.85    \nframe=   27 fps=0.2 q=44.9 size=       0KiB time=00:00:00.50 bitrate=   0.7kbits/s speed=0.00461x elapsed=0:01:48.43    \nframe=   27 fps=0.2 q=44.9 size=       0KiB time=00:00:00.50 bitrate=   0.7kbits/s speed=0.00459x elapsed=0:01:49.00    \nframe=   27 fps=0.2 q=44.9 size=       0KiB time=00:00:00.50 bitrate=   0.7kbits/s speed=0.00456x elapsed=0:01:49.58    \nframe=   27 fps=0.2 q=44.9 size=       0KiB time=00:00:00.50 bitrate=   0.7kbits/s speed=0.00454x elapsed=0:01:50.18    \nframe=   27 fps=0.2 q=44.9 size=       0KiB time=00:00:00.50 bitrate=   0.7kbits/s speed=0.00451x elapsed=0:01:50.75    \nframe=   27 fps=0.2 q=44.9 size=       0KiB time=00:00:00.50 bitrate=   0.7kbits/s speed=0.00449x elapsed=0:01:51.33    \nframe=   27 fps=0.2 q=44.9 size=       0KiB time=00:00:00.50 bitrate=   0.7kbits/s speed=0.00447x elapsed=0:01:51.87    \nframe=   27 fps=0.2 q=44.9 size=       0KiB time=00:00:00.50 bitrate=   0.7kbits/s speed=0.00444x elapsed=0:01:52.49    \nframe=   27 fps=0.2 q=44.9 size=       0KiB time=00:00:00.50 bitrate=   0.7kbits/s speed=0.00442x elapsed=0:01:53.09    \nframe=   27 fps=0.2 q=44.9 size=       0KiB time=00:00:00.50 bitrate=   0.7kbits/s speed=0.0044x elapsed=0:01:53.64    \nframe=   27 fps=0.2 q=44.9 size=       0KiB time=00:00:00.50 bitrate=   0.7kbits/s speed=0.00438x elapsed=0:01:54.22    \nframe=   27 fps=0.2 q=44.9 size=       0KiB time=00:00:00.50 bitrate=   0.7kbits/s speed=0.00436x elapsed=0:01:54.76    \nframe=   28 fps=0.2 q=46.7 size=       0KiB time=00:00:00.52 bitrate=   0.7kbits/s speed=0.00451x elapsed=0:01:55.33    \nframe=   28 fps=0.2 q=46.7 size=       0KiB time=00:00:00.52 bitrate=   0.7kbits/s speed=0.00449x elapsed=0:01:55.87    \nframe=   28 fps=0.2 q=46.7 size=       0KiB time=00:00:00.52 bitrate=   0.7kbits/s speed=0.00447x elapsed=0:01:56.43    \nframe=   28 fps=0.2 q=46.7 size=       0KiB time=00:00:00.52 bitrate=   0.7kbits/s speed=0.00445x elapsed=0:01:56.94    \nframe=   28 fps=0.2 q=46.7 size=       0KiB time=00:00:00.52 bitrate=   0.7kbits/s speed=0.00443x elapsed=0:01:57.49    \nframe=   28 fps=0.2 q=46.7 size=       0KiB time=00:00:00.52 bitrate=   0.7kbits/s speed=0.0044x elapsed=0:01:58.04    \nframe=   28 fps=0.2 q=46.7 size=       0KiB time=00:00:00.52 bitrate=   0.7kbits/s speed=0.00438x elapsed=0:01:58.58    \nframe=   28 fps=0.2 q=46.7 size=       0KiB time=00:00:00.52 bitrate=   0.7kbits/s speed=0.00436x elapsed=0:01:59.15    \nframe=   28 fps=0.2 q=46.7 size=       0KiB time=00:00:00.52 bitrate=   0.7kbits/s speed=0.00434x elapsed=0:01:59.68    \nframe=   28 fps=0.2 q=46.7 size=       0KiB time=00:00:00.52 bitrate=   0.7kbits/s speed=0.00433x elapsed=0:02:00.22    \nframe=   29 fps=0.2 q=46.9 size=       0KiB time=00:00:00.54 bitrate=   0.7kbits/s speed=0.00447x elapsed=0:02:00.81    \nframe=   29 fps=0.2 q=46.9 size=       0KiB time=00:00:00.54 bitrate=   0.7kbits/s speed=0.00445x elapsed=0:02:01.34    \nframe=   29 fps=0.2 q=46.9 size=       0KiB time=00:00:00.54 bitrate=   0.7kbits/s speed=0.00443x elapsed=0:02:01.99    \nframe=   29 fps=0.2 q=46.9 size=       0KiB time=00:00:00.54 bitrate=   0.7kbits/s speed=0.00441x elapsed=0:02:02.56    \nframe=   29 fps=0.2 q=46.9 size=       0KiB time=00:00:00.54 bitrate=   0.7kbits/s speed=0.00439x elapsed=0:02:03.10    \nframe=   29 fps=0.2 q=46.9 size=       0KiB time=00:00:00.54 bitrate=   0.7kbits/s speed=0.00437x elapsed=0:02:03.69    \nframe=   30 fps=0.2 q=42.8 size=       0KiB time=00:00:00.56 bitrate=   0.6kbits/s speed=0.00451x elapsed=0:02:04.24    \nframe=   30 fps=0.2 q=42.8 size=       0KiB time=00:00:00.56 bitrate=   0.6kbits/s speed=0.00449x elapsed=0:02:04.77    \nframe=   30 fps=0.2 q=42.8 size=       0KiB time=00:00:00.56 bitrate=   0.6kbits/s speed=0.00447x elapsed=0:02:05.33    \nframe=   30 fps=0.2 q=42.8 size=       0KiB time=00:00:00.56 bitrate=   0.6kbits/s speed=0.00445x elapsed=0:02:05.91    \nframe=   30 fps=0.2 q=42.8 size=       0KiB time=00:00:00.56 bitrate=   0.6kbits/s speed=0.00443x elapsed=0:02:06.45    \nframe=   30 fps=0.2 q=42.8 size=       0KiB time=00:00:00.56 bitrate=   0.6kbits/s speed=0.00441x elapsed=0:02:07.02    \nframe=   31 fps=0.2 q=45.0 size=       0KiB time=00:00:00.58 bitrate=   0.6kbits/s speed=0.00455x elapsed=0:02:07.59    \nframe=   31 fps=0.2 q=45.0 size=       0KiB time=00:00:00.58 bitrate=   0.6kbits/s speed=0.00453x elapsed=0:02:08.13    \nframe=   31 fps=0.2 q=45.0 size=       0KiB time=00:00:00.58 bitrate=   0.6kbits/s speed=0.00451x elapsed=0:02:08.68    \nframe=   31 fps=0.2 q=45.0 size=       0KiB time=00:00:00.58 bitrate=   0.6kbits/s speed=0.00449x elapsed=0:02:09.21    \nframe=   31 fps=0.2 q=45.0 size=       0KiB time=00:00:00.58 bitrate=   0.6kbits/s speed=0.00447x elapsed=0:02:09.76    \nframe=   31 fps=0.2 q=45.0 size=       0KiB time=00:00:00.58 bitrate=   0.6kbits/s speed=0.00445x elapsed=0:02:10.32    \nframe=   31 fps=0.2 q=45.0 size=       0KiB time=00:00:00.58 bitrate=   0.6kbits/s speed=0.00443x elapsed=0:02:10.87    \nframe=   31 fps=0.2 q=45.0 size=       0KiB time=00:00:00.58 bitrate=   0.6kbits/s speed=0.00441x elapsed=0:02:11.47    \nframe=   31 fps=0.2 q=45.0 size=       0KiB time=00:00:00.58 bitrate=   0.6kbits/s speed=0.00439x elapsed=0:02:12.03    \nframe=   31 fps=0.2 q=45.0 size=       0KiB time=00:00:00.58 bitrate=   0.6kbits/s speed=0.00437x elapsed=0:02:12.64    \nframe=   31 fps=0.2 q=45.0 size=       0KiB time=00:00:00.58 bitrate=   0.6kbits/s speed=0.00435x elapsed=0:02:13.27    \nframe=   32 fps=0.2 q=47.2 size=       0KiB time=00:00:00.60 bitrate=   0.6kbits/s speed=0.00448x elapsed=0:02:13.87    \nframe=   32 fps=0.2 q=47.2 size=       0KiB time=00:00:00.60 bitrate=   0.6kbits/s speed=0.00446x elapsed=0:02:14.44    \nframe=   32 fps=0.2 q=47.2 size=       0KiB time=00:00:00.60 bitrate=   0.6kbits/s speed=0.00445x elapsed=0:02:14.96    \nframe=   32 fps=0.2 q=47.2 size=       0KiB time=00:00:00.60 bitrate=   0.6kbits/s speed=0.00443x elapsed=0:02:15.53    \nframe=   32 fps=0.2 q=47.2 size=       0KiB time=00:00:00.60 bitrate=   0.6kbits/s speed=0.00441x elapsed=0:02:16.11    \nframe=   32 fps=0.2 q=47.2 size=       0KiB time=00:00:00.60 bitrate=   0.6kbits/s speed=0.00439x elapsed=0:02:16.70    \nframe=   32 fps=0.2 q=47.2 size=       0KiB time=00:00:00.60 bitrate=   0.6kbits/s speed=0.00437x elapsed=0:02:17.33    \nframe=   32 fps=0.2 q=47.2 size=       0KiB time=00:00:00.60 bitrate=   0.6kbits/s speed=0.00435x elapsed=0:02:17.87    \nframe=   32 fps=0.2 q=47.2 size=       0KiB time=00:00:00.60 bitrate=   0.6kbits/s speed=0.00433x elapsed=0:02:18.40    \nframe=   33 fps=0.2 q=47.0 size=       0KiB time=00:00:00.62 bitrate=   0.6kbits/s speed=0.00446x elapsed=0:02:18.93    \nframe=   33 fps=0.2 q=47.0 size=       0KiB time=00:00:00.62 bitrate=   0.6kbits/s speed=0.00445x elapsed=0:02:19.46    \nframe=   33 fps=0.2 q=47.0 size=       0KiB time=00:00:00.62 bitrate=   0.6kbits/s speed=0.00443x elapsed=0:02:19.99    \nframe=   34 fps=0.2 q=42.7 size=       0KiB time=00:00:00.64 bitrate=   0.6kbits/s speed=0.00455x elapsed=0:02:20.51    \nframe=   35 fps=0.2 q=44.9 size=       0KiB time=00:00:00.66 bitrate=   0.5kbits/s speed=0.00468x elapsed=0:02:21.07    \nframe=   35 fps=0.2 q=44.9 size=       0KiB time=00:00:00.66 bitrate=   0.5kbits/s speed=0.00466x elapsed=0:02:21.60    \nframe=   35 fps=0.2 q=44.9 size=       0KiB time=00:00:00.66 bitrate=   0.5kbits/s speed=0.00464x elapsed=0:02:22.12    \nframe=   35 fps=0.2 q=44.9 size=       0KiB time=00:00:00.66 bitrate=   0.5kbits/s speed=0.00463x elapsed=0:02:22.64    \nframe=   35 fps=0.2 q=44.9 size=       0KiB time=00:00:00.66 bitrate=   0.5kbits/s speed=0.00461x elapsed=0:02:23.16    \nframe=   35 fps=0.2 q=44.9 size=       0KiB time=00:00:00.66 bitrate=   0.5kbits/s speed=0.00459x elapsed=0:02:23.70    \nframe=   35 fps=0.2 q=44.9 size=       0KiB time=00:00:00.66 bitrate=   0.5kbits/s speed=0.00458x elapsed=0:02:24.25    \nframe=   36 fps=0.2 q=47.2 size=       0KiB time=00:00:00.68 bitrate=   0.5kbits/s speed=0.0047x elapsed=0:02:24.77    \nframe=   36 fps=0.2 q=47.2 size=       0KiB time=00:00:00.68 bitrate=   0.5kbits/s speed=0.00468x elapsed=0:02:25.30    \nframe=   36 fps=0.2 q=47.2 size=       0KiB time=00:00:00.68 bitrate=   0.5kbits/s speed=0.00466x elapsed=0:02:25.82    \nframe=   36 fps=0.2 q=47.2 size=       0KiB time=00:00:00.68 bitrate=   0.5kbits/s speed=0.00465x elapsed=0:02:26.35    \nframe=   37 fps=0.3 q=46.6 size=       0KiB time=00:00:00.70 bitrate=   0.5kbits/s speed=0.00477x elapsed=0:02:26.87    \nframe=   38 fps=0.3 q=42.7 size=       0KiB time=00:00:00.72 bitrate=   0.5kbits/s speed=0.00488x elapsed=0:02:27.40    \nframe=   38 fps=0.3 q=42.7 size=       0KiB time=00:00:00.72 bitrate=   0.5kbits/s speed=0.00487x elapsed=0:02:27.94    \nframe=   38 fps=0.3 q=42.7 size=       0KiB time=00:00:00.72 bitrate=   0.5kbits/s speed=0.00485x elapsed=0:02:28.47    \nframe=   38 fps=0.3 q=42.7 size=       0KiB time=00:00:00.72 bitrate=   0.5kbits/s speed=0.00483x elapsed=0:02:28.98    \nframe=   39 fps=0.3 q=44.6 size=       0KiB time=00:00:00.74 bitrate=   0.5kbits/s speed=0.00495x elapsed=0:02:29.52    \nframe=   39 fps=0.3 q=44.6 size=       0KiB time=00:00:00.74 bitrate=   0.5kbits/s speed=0.00493x elapsed=0:02:30.06    \nframe=   39 fps=0.3 q=44.6 size=       0KiB time=00:00:00.74 bitrate=   0.5kbits/s speed=0.00491x elapsed=0:02:30.59    \nframe=   40 fps=0.3 q=47.3 size=       0KiB time=00:00:00.76 bitrate=   0.5kbits/s speed=0.00503x elapsed=0:02:31.13    \nframe=   40 fps=0.3 q=47.3 size=       0KiB time=00:00:00.76 bitrate=   0.5kbits/s speed=0.00501x elapsed=0:02:31.67    \nframe=   40 fps=0.3 q=47.3 size=       0KiB time=00:00:00.76 bitrate=   0.5kbits/s speed=0.00499x elapsed=0:02:32.20    \nframe=   41 fps=0.3 q=46.7 size=       0KiB time=00:00:00.78 bitrate=   0.5kbits/s speed=0.00511x elapsed=0:02:32.72    \nframe=   41 fps=0.3 q=46.7 size=       0KiB time=00:00:00.78 bitrate=   0.5kbits/s speed=0.00509x elapsed=0:02:33.22    \nframe=   41 fps=0.3 q=46.7 size=       0KiB time=00:00:00.78 bitrate=   0.5kbits/s speed=0.00507x elapsed=0:02:33.76    \nframe=   42 fps=0.3 q=42.6 size=       0KiB time=00:00:00.80 bitrate=   0.4kbits/s speed=0.00518x elapsed=0:02:34.31    \nframe=   43 fps=0.3 q=44.7 size=       0KiB time=00:00:00.82 bitrate=   0.4kbits/s speed=0.0053x elapsed=0:02:34.82    \nframe=   43 fps=0.3 q=44.7 size=       0KiB time=00:00:00.82 bitrate=   0.4kbits/s speed=0.00528x elapsed=0:02:35.36    \nframe=   43 fps=0.3 q=44.7 size=       0KiB time=00:00:00.82 bitrate=   0.4kbits/s speed=0.00526x elapsed=0:02:35.88    \nframe=   43 fps=0.3 q=44.7 size=       0KiB time=00:00:00.82 bitrate=   0.4kbits/s speed=0.00524x elapsed=0:02:36.43    \nframe=   43 fps=0.3 q=44.7 size=       0KiB time=00:00:00.82 bitrate=   0.4kbits/s speed=0.00522x elapsed=0:02:36.99    \nframe=   44 fps=0.3 q=47.1 size=       0KiB time=00:00:00.84 bitrate=   0.4kbits/s speed=0.00533x elapsed=0:02:37.52    \nframe=   44 fps=0.3 q=47.1 size=       0KiB time=00:00:00.84 bitrate=   0.4kbits/s speed=0.00531x elapsed=0:02:38.05    \nframe=   44 fps=0.3 q=47.1 size=       0KiB time=00:00:00.84 bitrate=   0.4kbits/s speed=0.0053x elapsed=0:02:38.58    \nframe=   45 fps=0.3 q=46.6 size=       0KiB time=00:00:00.86 bitrate=   0.4kbits/s speed=0.00541x elapsed=0:02:39.10    \nframe=   45 fps=0.3 q=46.6 size=       0KiB time=00:00:00.86 bitrate=   0.4kbits/s speed=0.00539x elapsed=0:02:39.62    \nframe=   45 fps=0.3 q=46.6 size=       0KiB time=00:00:00.86 bitrate=   0.4kbits/s speed=0.00537x elapsed=0:02:40.20    \nframe=   46 fps=0.3 q=42.8 size=       0KiB time=00:00:00.88 bitrate=   0.4kbits/s speed=0.00547x elapsed=0:02:40.74    \nframe=   47 fps=0.3 q=44.4 size=       0KiB time=00:00:00.90 bitrate=   0.4kbits/s speed=0.00558x elapsed=0:02:41.27    \nframe=   47 fps=0.3 q=44.4 size=       0KiB time=00:00:00.90 bitrate=   0.4kbits/s speed=0.00556x elapsed=0:02:41.78    \nframe=   47 fps=0.3 q=44.4 size=       0KiB time=00:00:00.90 bitrate=   0.4kbits/s speed=0.00555x elapsed=0:02:42.30    \nframe=   47 fps=0.3 q=44.4 size=       0KiB time=00:00:00.90 bitrate=   0.4kbits/s speed=0.00553x elapsed=0:02:42.82    \nframe=   47 fps=0.3 q=44.4 size=       0KiB time=00:00:00.90 bitrate=   0.4kbits/s speed=0.00551x elapsed=0:02:43.35    \nframe=   47 fps=0.3 q=44.4 size=       0KiB time=00:00:00.90 bitrate=   0.4kbits/s speed=0.00549x elapsed=0:02:43.89    \nframe=   48 fps=0.3 q=47.0 size=       0KiB time=00:00:00.92 bitrate=   0.4kbits/s speed=0.0056x elapsed=0:02:44.41    \nframe=   48 fps=0.3 q=47.0 size=       0KiB time=00:00:00.92 bitrate=   0.4kbits/s speed=0.00558x elapsed=0:02:44.93    \nframe=   48 fps=0.3 q=47.0 size=       0KiB time=00:00:00.92 bitrate=   0.4kbits/s speed=0.00556x elapsed=0:02:45.45    \nframe=   48 fps=0.3 q=47.0 size=       0KiB time=00:00:00.92 bitrate=   0.4kbits/s speed=0.00554x elapsed=0:02:45.98    \nframe=   48 fps=0.3 q=47.0 size=       0KiB time=00:00:00.92 bitrate=   0.4kbits/s speed=0.00553x elapsed=0:02:46.51    \nframe=   49 fps=0.3 q=47.1 size=       0KiB time=00:00:00.94 bitrate=   0.4kbits/s speed=0.00563x elapsed=0:02:47.03    \nframe=   49 fps=0.3 q=47.1 size=       0KiB time=00:00:00.94 bitrate=   0.4kbits/s speed=0.00561x elapsed=0:02:47.55    \nframe=   49 fps=0.3 q=47.1 size=       0KiB time=00:00:00.94 bitrate=   0.4kbits/s speed=0.00559x elapsed=0:02:48.07    \nframe=   49 fps=0.3 q=47.1 size=       0KiB time=00:00:00.94 bitrate=   0.4kbits/s speed=0.00557x elapsed=0:02:48.61    \nframe=   49 fps=0.3 q=47.1 size=       0KiB time=00:00:00.94 bitrate=   0.4kbits/s speed=0.00556x elapsed=0:02:49.13    \nframe=   50 fps=0.3 q=42.4 size=       0KiB time=00:00:00.96 bitrate=   0.4kbits/s speed=0.00566x elapsed=0:02:49.63    \nframe=   51 fps=0.3 q=44.8 size=       0KiB time=00:00:00.98 bitrate=   0.4kbits/s speed=0.00576x elapsed=0:02:50.15    \nframe=   51 fps=0.3 q=44.8 size=       0KiB time=00:00:00.98 bitrate=   0.4kbits/s speed=0.00574x elapsed=0:02:50.68    \nframe=   51 fps=0.3 q=44.8 size=       0KiB time=00:00:00.98 bitrate=   0.4kbits/s speed=0.00572x elapsed=0:02:51.22    \nframe=   51 fps=0.3 q=44.8 size=       0KiB time=00:00:00.98 bitrate=   0.4kbits/s speed=0.00571x elapsed=0:02:51.77    \nframe=   52 fps=0.3 q=47.3 size=       0KiB time=00:00:01.00 bitrate=   0.4kbits/s speed=0.0058x elapsed=0:02:52.29    \nframe=   52 fps=0.3 q=47.3 size=       0KiB time=00:00:01.00 bitrate=   0.4kbits/s speed=0.00579x elapsed=0:02:52.82    \nframe=   52 fps=0.3 q=47.3 size=       0KiB time=00:00:01.00 bitrate=   0.4kbits/s speed=0.00577x elapsed=0:02:53.34    \nframe=   52 fps=0.3 q=47.3 size=       0KiB time=00:00:01.00 bitrate=   0.4kbits/s speed=0.00575x elapsed=0:02:53.86    \nframe=   53 fps=0.3 q=47.3 size=       0KiB time=00:00:01.02 bitrate=   0.3kbits/s speed=0.00585x elapsed=0:02:54.38    \nframe=   54 fps=0.3 q=42.4 size=       0KiB time=00:00:01.04 bitrate=   0.3kbits/s speed=0.00595x elapsed=0:02:54.93    \nframe=   54 fps=0.3 q=42.4 size=       0KiB time=00:00:01.04 bitrate=   0.3kbits/s speed=0.00593x elapsed=0:02:55.45    \nframe=   54 fps=0.3 q=42.4 size=       0KiB time=00:00:01.04 bitrate=   0.3kbits/s speed=0.00591x elapsed=0:02:55.96    \nframe=   55 fps=0.3 q=44.9 size=     256KiB time=00:00:01.06 bitrate=1978.8kbits/s speed=0.00601x elapsed=0:02:56.50    \nframe=   55 fps=0.3 q=44.9 size=     256KiB time=00:00:01.06 bitrate=1978.8kbits/s speed=0.00599x elapsed=0:02:57.01    \nframe=   55 fps=0.3 q=44.9 size=     256KiB time=00:00:01.06 bitrate=1978.8kbits/s speed=0.00597x elapsed=0:02:57.56    \nframe=   56 fps=0.3 q=47.1 size=     256KiB time=00:00:01.08 bitrate=1942.1kbits/s speed=0.00606x elapsed=0:02:58.07    \nframe=   56 fps=0.3 q=47.1 size=     256KiB time=00:00:01.08 bitrate=1942.1kbits/s speed=0.00605x elapsed=0:02:58.60    \nframe=   57 fps=0.3 q=47.2 size=     256KiB time=00:00:01.10 bitrate=1906.8kbits/s speed=0.00614x elapsed=0:02:59.14    \nframe=   57 fps=0.3 q=47.2 size=     256KiB time=00:00:01.10 bitrate=1906.8kbits/s speed=0.00612x elapsed=0:02:59.71    \nframe=   57 fps=0.3 q=47.2 size=     256KiB time=00:00:01.10 bitrate=1906.8kbits/s speed=0.0061x elapsed=0:03:00.24    \nframe=   57 fps=0.3 q=47.2 size=     256KiB time=00:00:01.10 bitrate=1906.8kbits/s speed=0.00608x elapsed=0:03:00.78    \nframe=   57 fps=0.3 q=47.2 size=     256KiB time=00:00:01.10 bitrate=1906.8kbits/s speed=0.00607x elapsed=0:03:01.30    \nframe=   59 fps=0.3 q=45.0 size=     256KiB time=00:00:01.14 bitrate=1839.9kbits/s speed=0.00627x elapsed=0:03:01.83    \nframe=   59 fps=0.3 q=45.0 size=     256KiB time=00:00:01.14 bitrate=1839.9kbits/s speed=0.00625x elapsed=0:03:02.36    \nframe=   59 fps=0.3 q=45.0 size=     256KiB time=00:00:01.14 bitrate=1839.9kbits/s speed=0.00623x elapsed=0:03:02.89    \nframe=   59 fps=0.3 q=45.0 size=     256KiB time=00:00:01.14 bitrate=1839.9kbits/s speed=0.00622x elapsed=0:03:03.42    \nframe=   59 fps=0.3 q=45.0 size=     256KiB time=00:00:01.14 bitrate=1839.9kbits/s speed=0.0062x elapsed=0:03:03.96    \nframe=   60 fps=0.3 q=47.1 size=     256KiB time=00:00:01.16 bitrate=1808.2kbits/s speed=0.00629x elapsed=0:03:04.48    \nframe=   60 fps=0.3 q=47.1 size=     256KiB time=00:00:01.16 bitrate=1808.2kbits/s speed=0.00627x elapsed=0:03:05.00    \nframe=   61 fps=0.3 q=47.3 size=     256KiB time=00:00:01.18 bitrate=1777.5kbits/s speed=0.00636x elapsed=0:03:05.58    \nframe=   61 fps=0.3 q=47.3 size=     256KiB time=00:00:01.18 bitrate=1777.5kbits/s speed=0.00634x elapsed=0:03:06.13    \nframe=   61 fps=0.3 q=47.3 size=     256KiB time=00:00:01.18 bitrate=1777.5kbits/s speed=0.00632x elapsed=0:03:06.68    \nframe=   62 fps=0.3 q=42.3 size=     256KiB time=00:00:01.20 bitrate=1747.9kbits/s speed=0.00641x elapsed=0:03:07.20    \nframe=   63 fps=0.3 q=45.1 size=     256KiB time=00:00:01.22 bitrate=1719.3kbits/s speed=0.0065x elapsed=0:03:07.75    \nframe=   63 fps=0.3 q=45.1 size=     256KiB time=00:00:01.22 bitrate=1719.3kbits/s speed=0.00648x elapsed=0:03:08.26    \nframe=   63 fps=0.3 q=45.1 size=     256KiB time=00:00:01.22 bitrate=1719.3kbits/s speed=0.00646x elapsed=0:03:08.81    \nframe=   64 fps=0.3 q=47.2 size=     256KiB time=00:00:01.24 bitrate=1691.5kbits/s speed=0.00655x elapsed=0:03:09.35    \nframe=   64 fps=0.3 q=47.2 size=     256KiB time=00:00:01.24 bitrate=1691.5kbits/s speed=0.00653x elapsed=0:03:09.86    \nframe=   64 fps=0.3 q=47.2 size=     256KiB time=00:00:01.24 bitrate=1691.5kbits/s speed=0.00651x elapsed=0:03:10.38    \nframe=   65 fps=0.3 q=47.1 size=     256KiB time=00:00:01.26 bitrate=1664.7kbits/s speed=0.0066x elapsed=0:03:10.90    \nframe=   65 fps=0.3 q=47.1 size=     256KiB time=00:00:01.26 bitrate=1664.7kbits/s speed=0.00658x elapsed=0:03:11.43    \nframe=   65 fps=0.3 q=47.1 size=     256KiB time=00:00:01.26 bitrate=1664.7kbits/s speed=0.00656x elapsed=0:03:11.99    \nframe=   66 fps=0.3 q=42.4 size=     256KiB time=00:00:01.28 bitrate=1638.7kbits/s speed=0.00665x elapsed=0:03:12.53    \nframe=   66 fps=0.3 q=42.4 size=     256KiB time=00:00:01.28 bitrate=1638.7kbits/s speed=0.00663x elapsed=0:03:13.07    \nframe=   67 fps=0.3 q=45.0 size=     256KiB time=00:00:01.30 bitrate=1613.5kbits/s speed=0.00672x elapsed=0:03:13.59    \nframe=   67 fps=0.3 q=45.0 size=     256KiB time=00:00:01.30 bitrate=1613.5kbits/s speed=0.0067x elapsed=0:03:14.11    \nframe=   67 fps=0.3 q=45.0 size=     256KiB time=00:00:01.30 bitrate=1613.5kbits/s speed=0.00668x elapsed=0:03:14.64    \nframe=   67 fps=0.3 q=45.0 size=     256KiB time=00:00:01.30 bitrate=1613.5kbits/s speed=0.00666x elapsed=0:03:15.17    \nframe=   67 fps=0.3 q=45.0 size=     256KiB time=00:00:01.30 bitrate=1613.5kbits/s speed=0.00664x elapsed=0:03:15.73    \nframe=   67 fps=0.3 q=45.0 size=     256KiB time=00:00:01.30 bitrate=1613.5kbits/s speed=0.00662x elapsed=0:03:16.27    \nframe=   68 fps=0.3 q=47.4 size=     256KiB time=00:00:01.32 bitrate=1589.0kbits/s speed=0.00671x elapsed=0:03:16.80    \nframe=   69 fps=0.3 q=47.2 size=     256KiB time=00:00:01.34 bitrate=1565.3kbits/s speed=0.00679x elapsed=0:03:17.33    \nframe=   69 fps=0.3 q=47.2 size=     256KiB time=00:00:01.34 bitrate=1565.3kbits/s speed=0.00677x elapsed=0:03:17.87    \nframe=   69 fps=0.3 q=47.2 size=     256KiB time=00:00:01.34 bitrate=1565.3kbits/s speed=0.00675x elapsed=0:03:18.40    \nframe=   69 fps=0.3 q=47.2 size=     256KiB time=00:00:01.34 bitrate=1565.3kbits/s speed=0.00673x elapsed=0:03:18.96    \nframe=   70 fps=0.4 q=42.4 size=     256KiB time=00:00:01.36 bitrate=1542.3kbits/s speed=0.00682x elapsed=0:03:19.49    \nframe=   70 fps=0.3 q=42.4 size=     256KiB time=00:00:01.36 bitrate=1542.3kbits/s speed=0.0068x elapsed=0:03:20.02    \nframe=   70 fps=0.3 q=42.4 size=     256KiB time=00:00:01.36 bitrate=1542.3kbits/s speed=0.00678x elapsed=0:03:20.55    \nframe=   71 fps=0.4 q=45.0 size=     256KiB time=00:00:01.38 bitrate=1519.9kbits/s speed=0.00686x elapsed=0:03:21.10    \nframe=   71 fps=0.4 q=45.0 size=     256KiB time=00:00:01.38 bitrate=1519.9kbits/s speed=0.00684x elapsed=0:03:21.64    \nframe=   71 fps=0.4 q=45.0 size=     256KiB time=00:00:01.38 bitrate=1519.9kbits/s speed=0.00683x elapsed=0:03:22.16    \nframe=   71 fps=0.4 q=45.0 size=     256KiB time=00:00:01.38 bitrate=1519.9kbits/s speed=0.00681x elapsed=0:03:22.67    \nframe=   71 fps=0.3 q=45.0 size=     256KiB time=00:00:01.38 bitrate=1519.9kbits/s speed=0.00679x elapsed=0:03:23.20    \nframe=   71 fps=0.3 q=45.0 size=     256KiB time=00:00:01.38 bitrate=1519.9kbits/s speed=0.00677x elapsed=0:03:23.74    \nframe=   71 fps=0.3 q=45.0 size=     256KiB time=00:00:01.38 bitrate=1519.9kbits/s speed=0.00676x elapsed=0:03:24.27    \nframe=   72 fps=0.4 q=47.3 size=     256KiB time=00:00:01.40 bitrate=1498.2kbits/s speed=0.00683x elapsed=0:03:24.83    \nframe=   72 fps=0.4 q=47.3 size=     256KiB time=00:00:01.40 bitrate=1498.2kbits/s speed=0.00682x elapsed=0:03:25.37    \nframe=   72 fps=0.3 q=47.3 size=     256KiB time=00:00:01.40 bitrate=1498.2kbits/s speed=0.0068x elapsed=0:03:25.97    \nframe=   72 fps=0.3 q=47.3 size=     256KiB time=00:00:01.40 bitrate=1498.2kbits/s speed=0.00678x elapsed=0:03:26.54    \nframe=   72 fps=0.3 q=47.3 size=     256KiB time=00:00:01.40 bitrate=1498.2kbits/s speed=0.00676x elapsed=0:03:27.16    \nframe=   72 fps=0.3 q=47.3 size=     256KiB time=00:00:01.40 bitrate=1498.2kbits/s speed=0.00674x elapsed=0:03:27.79    \nframe=   72 fps=0.3 q=47.3 size=     256KiB time=00:00:01.40 bitrate=1498.2kbits/s speed=0.00672x elapsed=0:03:28.42    \nframe=   72 fps=0.3 q=47.3 size=     256KiB time=00:00:01.40 bitrate=1498.2kbits/s speed=0.0067x elapsed=0:03:29.06    \nframe=   72 fps=0.3 q=47.3 size=     256KiB time=00:00:01.40 bitrate=1498.2kbits/s speed=0.00668x elapsed=0:03:29.68    \nframe=   72 fps=0.3 q=47.3 size=     256KiB time=00:00:01.40 bitrate=1498.2kbits/s speed=0.00665x elapsed=0:03:30.37    \nframe=   72 fps=0.3 q=47.3 size=     256KiB time=00:00:01.40 bitrate=1498.2kbits/s speed=0.00663x elapsed=0:03:31.00    \nframe=   72 fps=0.3 q=47.3 size=     256KiB time=00:00:01.40 bitrate=1498.2kbits/s speed=0.00662x elapsed=0:03:31.62    \nframe=   72 fps=0.3 q=47.3 size=     256KiB time=00:00:01.40 bitrate=1498.2kbits/s speed=0.0066x elapsed=0:03:32.24    \nframe=   72 fps=0.3 q=47.3 size=     256KiB time=00:00:01.40 bitrate=1498.2kbits/s speed=0.00658x elapsed=0:03:32.85    \nframe=   72 fps=0.3 q=47.3 size=     256KiB time=00:00:01.40 bitrate=1498.2kbits/s speed=0.00656x elapsed=0:03:33.44    \nframe=   72 fps=0.3 q=47.3 size=     256KiB time=00:00:01.40 bitrate=1498.2kbits/s speed=0.00654x elapsed=0:03:34.06    \nframe=   72 fps=0.3 q=47.3 size=     256KiB time=00:00:01.40 bitrate=1498.2kbits/s speed=0.00652x elapsed=0:03:34.64    \nframe=   73 fps=0.3 q=47.3 size=     256KiB time=00:00:01.42 bitrate=1477.1kbits/s speed=0.0066x elapsed=0:03:35.16    \nframe=   73 fps=0.3 q=47.3 size=     256KiB time=00:00:01.42 bitrate=1477.1kbits/s speed=0.00658x elapsed=0:03:35.68    \nframe=   73 fps=0.3 q=47.3 size=     256KiB time=00:00:01.42 bitrate=1477.1kbits/s speed=0.00657x elapsed=0:03:36.25    \nframe=   73 fps=0.3 q=47.3 size=     256KiB time=00:00:01.42 bitrate=1477.1kbits/s speed=0.00655x elapsed=0:03:36.79    \nframe=   73 fps=0.3 q=47.3 size=     256KiB time=00:00:01.42 bitrate=1477.1kbits/s speed=0.00653x elapsed=0:03:37.36    \nframe=   73 fps=0.3 q=47.3 size=     256KiB time=00:00:01.42 bitrate=1477.1kbits/s speed=0.00652x elapsed=0:03:37.93    \nframe=   74 fps=0.3 q=42.4 size=     256KiB time=00:00:01.44 bitrate=1456.6kbits/s speed=0.00659x elapsed=0:03:38.50    \nframe=   74 fps=0.3 q=42.4 size=     256KiB time=00:00:01.44 bitrate=1456.6kbits/s speed=0.00657x elapsed=0:03:39.02    \nframe=   75 fps=0.3 q=45.2 size=     256KiB time=00:00:01.46 bitrate=1436.6kbits/s speed=0.00665x elapsed=0:03:39.54    \nframe=   75 fps=0.3 q=45.2 size=     256KiB time=00:00:01.46 bitrate=1436.6kbits/s speed=0.00663x elapsed=0:03:40.06    \nframe=   75 fps=0.3 q=45.2 size=     256KiB time=00:00:01.46 bitrate=1436.6kbits/s speed=0.00662x elapsed=0:03:40.60    \nframe=   75 fps=0.3 q=45.2 size=     256KiB time=00:00:01.46 bitrate=1436.6kbits/s speed=0.0066x elapsed=0:03:41.13    \nframe=   75 fps=0.3 q=45.2 size=     256KiB time=00:00:01.46 bitrate=1436.6kbits/s speed=0.00659x elapsed=0:03:41.64    \nframe=   75 fps=0.3 q=45.2 size=     256KiB time=00:00:01.46 bitrate=1436.6kbits/s speed=0.00657x elapsed=0:03:42.19    \nframe=   75 fps=0.3 q=45.2 size=     256KiB time=00:00:01.46 bitrate=1436.6kbits/s speed=0.00656x elapsed=0:03:42.71    \nframe=   76 fps=0.3 q=47.2 size=     256KiB time=00:00:01.48 bitrate=1417.2kbits/s speed=0.00663x elapsed=0:03:43.23    \nframe=   76 fps=0.3 q=47.2 size=     256KiB time=00:00:01.48 bitrate=1417.2kbits/s speed=0.00661x elapsed=0:03:43.77    \nframe=   77 fps=0.3 q=47.2 size=     256KiB time=00:00:01.50 bitrate=1398.3kbits/s speed=0.00669x elapsed=0:03:44.27    \nframe=   78 fps=0.3 q=42.3 size=     256KiB time=00:00:01.52 bitrate=1379.9kbits/s speed=0.00676x elapsed=0:03:44.79    \nframe=   78 fps=0.3 q=42.3 size=     256KiB time=00:00:01.52 bitrate=1379.9kbits/s speed=0.00674x elapsed=0:03:45.35    \nframe=   78 fps=0.3 q=42.3 size=     256KiB time=00:00:01.52 bitrate=1379.9kbits/s speed=0.00673x elapsed=0:03:45.90    \nframe=   79 fps=0.3 q=44.9 size=     256KiB time=00:00:01.54 bitrate=1362.0kbits/s speed=0.0068x elapsed=0:03:46.43    \nframe=   79 fps=0.3 q=44.9 size=     256KiB time=00:00:01.54 bitrate=1362.0kbits/s speed=0.00679x elapsed=0:03:46.96    \nframe=   79 fps=0.3 q=44.9 size=     256KiB time=00:00:01.54 bitrate=1362.0kbits/s speed=0.00677x elapsed=0:03:47.47    \nframe=   79 fps=0.3 q=44.9 size=     256KiB time=00:00:01.54 bitrate=1362.0kbits/s speed=0.00675x elapsed=0:03:48.00    \nframe=   79 fps=0.3 q=44.9 size=     256KiB time=00:00:01.54 bitrate=1362.0kbits/s speed=0.00674x elapsed=0:03:48.51    \nframe=   79 fps=0.3 q=44.9 size=     256KiB time=00:00:01.54 bitrate=1362.0kbits/s speed=0.00672x elapsed=0:03:49.03    \nframe=   80 fps=0.3 q=47.2 size=     256KiB time=00:00:01.56 bitrate=1344.6kbits/s speed=0.0068x elapsed=0:03:49.55    \nframe=   80 fps=0.3 q=47.2 size=     256KiB time=00:00:01.56 bitrate=1344.6kbits/s speed=0.00678x elapsed=0:03:50.07    \nframe=   80 fps=0.3 q=47.2 size=     256KiB time=00:00:01.56 bitrate=1344.6kbits/s speed=0.00676x elapsed=0:03:50.60    \nframe=   81 fps=0.4 q=47.2 size=     256KiB time=00:00:01.58 bitrate=1327.5kbits/s speed=0.00684x elapsed=0:03:51.12    \nframe=   81 fps=0.3 q=47.2 size=     256KiB time=00:00:01.58 bitrate=1327.5kbits/s speed=0.00682x elapsed=0:03:51.63    \nframe=   82 fps=0.4 q=42.0 size=     256KiB time=00:00:01.60 bitrate=1310.9kbits/s speed=0.00689x elapsed=0:03:52.17    \nframe=   83 fps=0.4 q=44.7 size=     256KiB time=00:00:01.62 bitrate=1294.8kbits/s speed=0.00696x elapsed=0:03:52.70    \nframe=   83 fps=0.4 q=44.7 size=     256KiB time=00:00:01.62 bitrate=1294.8kbits/s speed=0.00695x elapsed=0:03:53.22    \nframe=   83 fps=0.4 q=44.7 size=     256KiB time=00:00:01.62 bitrate=1294.8kbits/s speed=0.00693x elapsed=0:03:53.77    \nframe=   83 fps=0.4 q=44.7 size=     256KiB time=00:00:01.62 bitrate=1294.8kbits/s speed=0.00691x elapsed=0:03:54.29    \nframe=   83 fps=0.4 q=44.7 size=     256KiB time=00:00:01.62 bitrate=1294.8kbits/s speed=0.0069x elapsed=0:03:54.83    \nframe=   83 fps=0.4 q=44.7 size=     256KiB time=00:00:01.62 bitrate=1294.8kbits/s speed=0.00688x elapsed=0:03:55.36    \nframe=   83 fps=0.4 q=44.7 size=     256KiB time=00:00:01.62 bitrate=1294.8kbits/s speed=0.00687x elapsed=0:03:55.88    \nframe=   84 fps=0.4 q=46.9 size=     256KiB time=00:00:01.64 bitrate=1279.0kbits/s speed=0.00694x elapsed=0:03:56.38    \nframe=   84 fps=0.4 q=46.9 size=     256KiB time=00:00:01.64 bitrate=1279.0kbits/s speed=0.00692x elapsed=0:03:56.93    \nframe=   84 fps=0.4 q=46.9 size=     256KiB time=00:00:01.64 bitrate=1279.0kbits/s speed=0.00691x elapsed=0:03:57.44    \nframe=   85 fps=0.4 q=47.0 size=     256KiB time=00:00:01.66 bitrate=1263.6kbits/s speed=0.00698x elapsed=0:03:57.98    \nframe=   85 fps=0.4 q=47.0 size=     256KiB time=00:00:01.66 bitrate=1263.6kbits/s speed=0.00696x elapsed=0:03:58.50    \nframe=   86 fps=0.4 q=41.9 size=     256KiB time=00:00:01.68 bitrate=1248.5kbits/s speed=0.00703x elapsed=0:03:59.05    \nframe=   87 fps=0.4 q=44.9 size=     256KiB time=00:00:01.70 bitrate=1233.8kbits/s speed=0.0071x elapsed=0:03:59.59    \nframe=   87 fps=0.4 q=44.9 size=     256KiB time=00:00:01.70 bitrate=1233.8kbits/s speed=0.00708x elapsed=0:04:00.12    \nframe=   87 fps=0.4 q=44.9 size=     256KiB time=00:00:01.70 bitrate=1233.8kbits/s speed=0.00706x elapsed=0:04:00.65    \nframe=   87 fps=0.4 q=44.9 size=     256KiB time=00:00:01.70 bitrate=1233.8kbits/s speed=0.00705x elapsed=0:04:01.18    \nframe=   88 fps=0.4 q=47.2 size=     256KiB time=00:00:01.72 bitrate=1219.5kbits/s speed=0.00712x elapsed=0:04:01.73    \nframe=   88 fps=0.4 q=47.2 size=     256KiB time=00:00:01.72 bitrate=1219.5kbits/s speed=0.0071x elapsed=0:04:02.27    \nframe=   88 fps=0.4 q=47.2 size=     256KiB time=00:00:01.72 bitrate=1219.5kbits/s speed=0.00708x elapsed=0:04:02.81    \nframe=   88 fps=0.4 q=47.2 size=     256KiB time=00:00:01.72 bitrate=1219.5kbits/s speed=0.00707x elapsed=0:04:03.34    \nframe=   89 fps=0.4 q=47.3 size=     256KiB time=00:00:01.74 bitrate=1205.5kbits/s speed=0.00713x elapsed=0:04:03.86    \nframe=   89 fps=0.4 q=47.3 size=     256KiB time=00:00:01.74 bitrate=1205.5kbits/s speed=0.00712x elapsed=0:04:04.40    \nframe=   89 fps=0.4 q=47.3 size=     256KiB time=00:00:01.74 bitrate=1205.5kbits/s speed=0.0071x elapsed=0:04:04.93    \nframe=   89 fps=0.4 q=47.3 size=     256KiB time=00:00:01.74 bitrate=1205.5kbits/s speed=0.00709x elapsed=0:04:05.45    \nframe=   90 fps=0.4 q=41.8 size=     256KiB time=00:00:01.76 bitrate=1191.8kbits/s speed=0.00716x elapsed=0:04:05.97    \nframe=   91 fps=0.4 q=44.7 size=     256KiB time=00:00:01.76 bitrate=1191.8kbits/s speed=0.00714x elapsed=0:04:06.52    \nframe=   91 fps=0.4 q=44.7 size=     256KiB time=00:00:01.78 bitrate=1178.4kbits/s speed=0.0072x elapsed=0:04:07.06    \nframe=   91 fps=0.4 q=44.7 size=     256KiB time=00:00:01.78 bitrate=1178.4kbits/s speed=0.00719x elapsed=0:04:07.58    \nframe=   91 fps=0.4 q=44.7 size=     256KiB time=00:00:01.78 bitrate=1178.4kbits/s speed=0.00717x elapsed=0:04:08.12    \nframe=   91 fps=0.4 q=44.7 size=     256KiB time=00:00:01.78 bitrate=1178.4kbits/s speed=0.00716x elapsed=0:04:08.64    \nframe=   92 fps=0.4 q=47.2 size=     256KiB time=00:00:01.80 bitrate=1165.3kbits/s speed=0.00722x elapsed=0:04:09.19    \nframe=   92 fps=0.4 q=47.2 size=     256KiB time=00:00:01.80 bitrate=1165.3kbits/s speed=0.00721x elapsed=0:04:09.74    \nframe=   92 fps=0.4 q=47.2 size=     256KiB time=00:00:01.80 bitrate=1165.3kbits/s speed=0.00719x elapsed=0:04:10.26    \nframe=   93 fps=0.4 q=46.9 size=     256KiB time=00:00:01.82 bitrate=1152.5kbits/s speed=0.00726x elapsed=0:04:10.79    \nframe=   93 fps=0.4 q=46.9 size=     256KiB time=00:00:01.82 bitrate=1152.5kbits/s speed=0.00724x elapsed=0:04:11.31    \nframe=   93 fps=0.4 q=46.9 size=     256KiB time=00:00:01.82 bitrate=1152.5kbits/s speed=0.00723x elapsed=0:04:11.85    \nframe=   94 fps=0.4 q=41.3 size=     256KiB time=00:00:01.84 bitrate=1139.9kbits/s speed=0.00729x elapsed=0:04:12.39    \nframe=   94 fps=0.4 q=41.3 size=     256KiB time=00:00:01.84 bitrate=1139.9kbits/s speed=0.00728x elapsed=0:04:12.91    \nframe=   95 fps=0.4 q=45.4 size=     256KiB time=00:00:01.86 bitrate=1127.7kbits/s speed=0.00734x elapsed=0:04:13.46    \nframe=   96 fps=0.4 q=46.8 size=     256KiB time=00:00:01.88 bitrate=1115.7kbits/s speed=0.0074x elapsed=0:04:13.98    \nframe=   96 fps=0.4 q=46.8 size=     256KiB time=00:00:01.88 bitrate=1115.7kbits/s speed=0.00739x elapsed=0:04:14.51    \nframe=   96 fps=0.4 q=46.8 size=     256KiB time=00:00:01.88 bitrate=1115.7kbits/s speed=0.00737x elapsed=0:04:15.04    \nframe=   96 fps=0.4 q=46.8 size=     256KiB time=00:00:01.88 bitrate=1115.7kbits/s speed=0.00736x elapsed=0:04:15.59    \nframe=   96 fps=0.4 q=46.8 size=     256KiB time=00:00:01.88 bitrate=1115.7kbits/s speed=0.00734x elapsed=0:04:16.11    \nframe=   96 fps=0.4 q=46.8 size=     256KiB time=00:00:01.88 bitrate=1115.7kbits/s speed=0.00733x elapsed=0:04:16.64    \nframe=   96 fps=0.4 q=46.8 size=     256KiB time=00:00:01.88 bitrate=1115.7kbits/s speed=0.00731x elapsed=0:04:17.15    \nframe=   97 fps=0.4 q=47.1 size=     256KiB time=00:00:01.90 bitrate=1103.9kbits/s speed=0.00737x elapsed=0:04:17.67    \nframe=   97 fps=0.4 q=47.1 size=     256KiB time=00:00:01.90 bitrate=1103.9kbits/s speed=0.00736x elapsed=0:04:18.20    \nframe=   97 fps=0.4 q=47.1 size=     256KiB time=00:00:01.90 bitrate=1103.9kbits/s speed=0.00734x elapsed=0:04:18.74    \nframe=   98 fps=0.4 q=47.0 size=     256KiB time=00:00:01.90 bitrate=1103.9kbits/s speed=0.00733x elapsed=0:04:19.25    \nframe=   98 fps=0.4 q=47.0 size=     256KiB time=00:00:01.92 bitrate=1092.5kbits/s speed=0.00739x elapsed=0:04:19.82    \nframe=   98 fps=0.4 q=47.0 size=     256KiB time=00:00:01.92 bitrate=1092.5kbits/s speed=0.00737x elapsed=0:04:20.35    \nframe=   98 fps=0.4 q=47.0 size=     256KiB time=00:00:01.92 bitrate=1092.5kbits/s speed=0.00736x elapsed=0:04:20.87    \nframe=  100 fps=0.4 q=42.6 size=     256KiB time=00:00:01.96 bitrate=1070.2kbits/s speed=0.0075x elapsed=0:04:21.39    \nframe=  101 fps=0.4 q=47.1 size=     256KiB time=00:00:01.98 bitrate=1059.3kbits/s speed=0.00756x elapsed=0:04:21.91    \nframe=  101 fps=0.4 q=47.1 size=     256KiB time=00:00:01.98 bitrate=1059.3kbits/s speed=0.00754x elapsed=0:04:22.43    \nframe=  101 fps=0.4 q=47.1 size=     256KiB time=00:00:01.98 bitrate=1059.3kbits/s speed=0.00753x elapsed=0:04:22.96    \nframe=  102 fps=0.4 q=47.1 size=     256KiB time=00:00:02.00 bitrate=1048.8kbits/s speed=0.00759x elapsed=0:04:23.47    \nframe=  102 fps=0.4 q=47.1 size=     256KiB time=00:00:02.00 bitrate=1048.8kbits/s speed=0.00758x elapsed=0:04:24.00    \nframe=  103 fps=0.4 q=47.0 size=     256KiB time=00:00:02.02 bitrate=1038.4kbits/s speed=0.00764x elapsed=0:04:24.54    \nframe=  103 fps=0.4 q=47.0 size=     256KiB time=00:00:02.02 bitrate=1038.4kbits/s speed=0.00762x elapsed=0:04:25.05    \nframe=  103 fps=0.4 q=47.0 size=     256KiB time=00:00:02.02 bitrate=1038.4kbits/s speed=0.00761x elapsed=0:04:25.57    \nframe=  104 fps=0.4 q=41.3 size=     256KiB time=00:00:02.04 bitrate=1028.2kbits/s speed=0.00767x elapsed=0:04:26.12    \nframe=  105 fps=0.4 q=45.0 size=     512KiB time=00:00:02.06 bitrate=2036.2kbits/s speed=0.00773x elapsed=0:04:26.66    \nframe=  105 fps=0.4 q=45.0 size=     512KiB time=00:00:02.06 bitrate=2036.2kbits/s speed=0.00771x elapsed=0:04:27.18    \nframe=  105 fps=0.4 q=45.0 size=     512KiB time=00:00:02.06 bitrate=2036.2kbits/s speed=0.00769x elapsed=0:04:27.72    \nframe=  105 fps=0.4 q=45.0 size=     512KiB time=00:00:02.06 bitrate=2036.2kbits/s speed=0.00768x elapsed=0:04:28.24    \nframe=  105 fps=0.4 q=45.0 size=     512KiB time=00:00:02.06 bitrate=2036.2kbits/s speed=0.00766x elapsed=0:04:28.76    \nframe=  106 fps=0.4 q=47.4 size=     512KiB time=00:00:02.08 bitrate=2016.7kbits/s speed=0.00772x elapsed=0:04:29.28    \nframe=  107 fps=0.4 q=47.5 size=     512KiB time=00:00:02.10 bitrate=1997.5kbits/s speed=0.00778x elapsed=0:04:29.80    \nframe=  108 fps=0.4 q=47.5 size=     512KiB time=00:00:02.12 bitrate=1978.6kbits/s speed=0.00784x elapsed=0:04:30.30    \nframe=  109 fps=0.4 q=41.0 size=     512KiB time=00:00:02.14 bitrate=1960.1kbits/s speed=0.0079x elapsed=0:04:30.83    \nframe=  109 fps=0.4 q=41.0 size=     512KiB time=00:00:02.14 bitrate=1960.1kbits/s speed=0.00789x elapsed=0:04:31.35    \nframe=  109 fps=0.4 q=41.0 size=     512KiB time=00:00:02.14 bitrate=1960.1kbits/s speed=0.00787x elapsed=0:04:31.88    \nframe=  110 fps=0.4 q=45.8 size=     512KiB time=00:00:02.16 bitrate=1942.0kbits/s speed=0.00793x elapsed=0:04:32.41    \nframe=  110 fps=0.4 q=45.8 size=     512KiB time=00:00:02.16 bitrate=1942.0kbits/s speed=0.00791x elapsed=0:04:32.98    \nframe=  110 fps=0.4 q=45.8 size=     512KiB time=00:00:02.16 bitrate=1942.0kbits/s speed=0.0079x elapsed=0:04:33.51    \nframe=  111 fps=0.4 q=47.6 size=     512KiB time=00:00:02.18 bitrate=1924.2kbits/s speed=0.00795x elapsed=0:04:34.06    \nframe=  112 fps=0.4 q=47.4 size=     512KiB time=00:00:02.20 bitrate=1906.7kbits/s speed=0.00801x elapsed=0:04:34.57    \nframe=  112 fps=0.4 q=47.4 size=     512KiB time=00:00:02.20 bitrate=1906.7kbits/s speed=0.008x elapsed=0:04:35.10    \nframe=  112 fps=0.4 q=47.4 size=     512KiB time=00:00:02.20 bitrate=1906.7kbits/s speed=0.00798x elapsed=0:04:35.63    \nframe=  113 fps=0.4 q=41.1 size=     512KiB time=00:00:02.22 bitrate=1889.5kbits/s speed=0.00804x elapsed=0:04:36.15    \nframe=  113 fps=0.4 q=41.1 size=     512KiB time=00:00:02.22 bitrate=1889.5kbits/s speed=0.00802x elapsed=0:04:36.67    \nframe=  114 fps=0.4 q=45.5 size=     512KiB time=00:00:02.24 bitrate=1872.6kbits/s speed=0.00808x elapsed=0:04:37.18    \nframe=  114 fps=0.4 q=45.5 size=     512KiB time=00:00:02.24 bitrate=1872.6kbits/s speed=0.00807x elapsed=0:04:37.70    \nframe=  114 fps=0.4 q=45.5 size=     512KiB time=00:00:02.24 bitrate=1872.6kbits/s speed=0.00805x elapsed=0:04:38.22    \nframe=  114 fps=0.4 q=45.5 size=     512KiB time=00:00:02.24 bitrate=1872.6kbits/s speed=0.00804x elapsed=0:04:38.74    \nframe=  116 fps=0.4 q=47.8 size=     512KiB time=00:00:02.28 bitrate=1839.8kbits/s speed=0.00816x elapsed=0:04:39.26    \nframe=  117 fps=0.4 q=41.1 size=     512KiB time=00:00:02.30 bitrate=1823.8kbits/s speed=0.00822x elapsed=0:04:39.78    \nframe=  117 fps=0.4 q=41.1 size=     512KiB time=00:00:02.30 bitrate=1823.8kbits/s speed=0.00821x elapsed=0:04:40.30    \nframe=  117 fps=0.4 q=41.1 size=     512KiB time=00:00:02.30 bitrate=1823.8kbits/s speed=0.00819x elapsed=0:04:40.84    \nframe=  117 fps=0.4 q=41.1 size=     512KiB time=00:00:02.30 bitrate=1823.8kbits/s speed=0.00817x elapsed=0:04:41.37    \nframe=  118 fps=0.4 q=46.0 size=     512KiB time=00:00:02.32 bitrate=1808.0kbits/s speed=0.00823x elapsed=0:04:41.89    \nframe=  119 fps=0.4 q=47.7 size=     512KiB time=00:00:02.34 bitrate=1792.6kbits/s speed=0.00829x elapsed=0:04:42.41    \nframe=  119 fps=0.4 q=47.7 size=     512KiB time=00:00:02.34 bitrate=1792.6kbits/s speed=0.00827x elapsed=0:04:42.94    \nframe=  119 fps=0.4 q=47.7 size=     512KiB time=00:00:02.34 bitrate=1792.6kbits/s speed=0.00825x elapsed=0:04:43.47    \nframe=  119 fps=0.4 q=47.7 size=     512KiB time=00:00:02.34 bitrate=1792.6kbits/s speed=0.00824x elapsed=0:04:44.01    \nframe=  120 fps=0.4 q=47.8 size=     512KiB time=00:00:02.36 bitrate=1777.4kbits/s speed=0.00829x elapsed=0:04:44.53    \nframe=  121 fps=0.4 q=41.0 size=     512KiB time=00:00:02.38 bitrate=1762.5kbits/s speed=0.00835x elapsed=0:04:45.05    \nframe=  121 fps=0.4 q=41.0 size=     512KiB time=00:00:02.38 bitrate=1762.5kbits/s speed=0.00833x elapsed=0:04:45.58    \nframe=  121 fps=0.4 q=41.0 size=     512KiB time=00:00:02.38 bitrate=1762.5kbits/s speed=0.00832x elapsed=0:04:46.14    \nframe=  122 fps=0.4 q=45.9 size=     512KiB time=00:00:02.40 bitrate=1747.8kbits/s speed=0.00837x elapsed=0:04:46.67    \nframe=  122 fps=0.4 q=45.9 size=     512KiB time=00:00:02.40 bitrate=1747.8kbits/s speed=0.00836x elapsed=0:04:47.23    \nframe=  122 fps=0.4 q=45.9 size=     512KiB time=00:00:02.40 bitrate=1747.8kbits/s speed=0.00834x elapsed=0:04:47.77    \nframe=  124 fps=0.4 q=47.8 size=     512KiB time=00:00:02.44 bitrate=1719.1kbits/s speed=0.00846x elapsed=0:04:48.29    \nframe=  124 fps=0.4 q=47.8 size=     512KiB time=00:00:02.44 bitrate=1719.1kbits/s speed=0.00845x elapsed=0:04:48.84    \nframe=  124 fps=0.4 q=47.8 size=     512KiB time=00:00:02.44 bitrate=1719.1kbits/s speed=0.00843x elapsed=0:04:49.36    \nframe=  124 fps=0.4 q=47.8 size=     512KiB time=00:00:02.44 bitrate=1719.1kbits/s speed=0.00842x elapsed=0:04:49.89    \nframe=  125 fps=0.4 q=40.8 size=     512KiB time=00:00:02.46 bitrate=1705.1kbits/s speed=0.00847x elapsed=0:04:50.47    \nframe=  125 fps=0.4 q=40.8 size=     512KiB time=00:00:02.46 bitrate=1705.1kbits/s speed=0.00845x elapsed=0:04:51.01    \nframe=  125 fps=0.4 q=40.8 size=     512KiB time=00:00:02.46 bitrate=1705.1kbits/s speed=0.00844x elapsed=0:04:51.60    \nframe=  125 fps=0.4 q=40.8 size=     512KiB time=00:00:02.46 bitrate=1705.1kbits/s speed=0.00842x elapsed=0:04:52.13    \nframe=  125 fps=0.4 q=40.8 size=     512KiB time=00:00:02.46 bitrate=1705.1kbits/s speed=0.0084x elapsed=0:04:52.72    \nframe=  125 fps=0.4 q=40.8 size=     512KiB time=00:00:02.46 bitrate=1705.1kbits/s speed=0.00839x elapsed=0:04:53.32    \nframe=  125 fps=0.4 q=40.8 size=     512KiB time=00:00:02.46 bitrate=1705.1kbits/s speed=0.00837x elapsed=0:04:54.01    \nframe=  125 fps=0.4 q=40.8 size=     512KiB time=00:00:02.46 bitrate=1705.1kbits/s speed=0.00835x elapsed=0:04:54.66    \nframe=  126 fps=0.4 q=46.0 size=     512KiB time=00:00:02.48 bitrate=1691.4kbits/s speed=0.0084x elapsed=0:04:55.34    \nframe=  126 fps=0.4 q=46.0 size=     512KiB time=00:00:02.48 bitrate=1691.4kbits/s speed=0.00838x elapsed=0:04:55.94    \nframe=  126 fps=0.4 q=46.0 size=     512KiB time=00:00:02.48 bitrate=1691.4kbits/s speed=0.00836x elapsed=0:04:56.50    \nframe=  126 fps=0.4 q=46.0 size=     512KiB time=00:00:02.48 bitrate=1691.4kbits/s speed=0.00835x elapsed=0:04:57.05    \nframe=  126 fps=0.4 q=46.0 size=     512KiB time=00:00:02.48 bitrate=1691.4kbits/s speed=0.00833x elapsed=0:04:57.59    \nframe=  126 fps=0.4 q=46.0 size=     512KiB time=00:00:02.48 bitrate=1691.4kbits/s speed=0.00832x elapsed=0:04:58.18    \nframe=  127 fps=0.4 q=47.8 size=     512KiB time=00:00:02.50 bitrate=1677.9kbits/s speed=0.00837x elapsed=0:04:58.77    \nframe=  127 fps=0.4 q=47.8 size=     512KiB time=00:00:02.50 bitrate=1677.9kbits/s speed=0.00835x elapsed=0:04:59.32    \nframe=  127 fps=0.4 q=47.8 size=     512KiB time=00:00:02.50 bitrate=1677.9kbits/s speed=0.00834x elapsed=0:04:59.93    \nframe=  127 fps=0.4 q=47.8 size=     512KiB time=00:00:02.50 bitrate=1677.9kbits/s speed=0.00832x elapsed=0:05:00.50    \nframe=  127 fps=0.4 q=47.8 size=     512KiB time=00:00:02.50 bitrate=1677.9kbits/s speed=0.0083x elapsed=0:05:01.07    \nframe=  127 fps=0.4 q=47.8 size=     512KiB time=00:00:02.50 bitrate=1677.9kbits/s speed=0.00829x elapsed=0:05:01.58    \nframe=  127 fps=0.4 q=47.8 size=     512KiB time=00:00:02.50 bitrate=1677.9kbits/s speed=0.00828x elapsed=0:05:02.11    \nframe=  128 fps=0.4 q=47.9 size=     512KiB time=00:00:02.52 bitrate=1664.5kbits/s speed=0.00833x elapsed=0:05:02.66    \nframe=  128 fps=0.4 q=47.9 size=     512KiB time=00:00:02.52 bitrate=1664.5kbits/s speed=0.00831x elapsed=0:05:03.22    \nframe=  129 fps=0.4 q=40.8 size=     512KiB time=00:00:02.54 bitrate=1651.4kbits/s speed=0.00836x elapsed=0:05:03.79    \nframe=  129 fps=0.4 q=40.8 size=     512KiB time=00:00:02.54 bitrate=1651.4kbits/s speed=0.00835x elapsed=0:05:04.32    \nframe=  130 fps=0.4 q=46.3 size=     512KiB time=00:00:02.56 bitrate=1638.5kbits/s speed=0.0084x elapsed=0:05:04.90    \nframe=  130 fps=0.4 q=46.3 size=     512KiB time=00:00:02.56 bitrate=1638.5kbits/s speed=0.00838x elapsed=0:05:05.43    \nframe=  131 fps=0.4 q=47.6 size=     512KiB time=00:00:02.58 bitrate=1625.8kbits/s speed=0.00843x elapsed=0:05:05.95    \nframe=  132 fps=0.4 q=47.6 size=     512KiB time=00:00:02.60 bitrate=1613.3kbits/s speed=0.00848x elapsed=0:05:06.48    \nframe=  133 fps=0.4 q=47.7 size=     512KiB time=00:00:02.62 bitrate=1601.0kbits/s speed=0.00853x elapsed=0:05:06.99    \nframe=  133 fps=0.4 q=47.7 size=     512KiB time=00:00:02.62 bitrate=1601.0kbits/s speed=0.00852x elapsed=0:05:07.51    \nframe=  133 fps=0.4 q=47.7 size=     512KiB time=00:00:02.62 bitrate=1601.0kbits/s speed=0.0085x elapsed=0:05:08.06    \nframe=  133 fps=0.4 q=47.7 size=     512KiB time=00:00:02.62 bitrate=1601.0kbits/s speed=0.00849x elapsed=0:05:08.63    \nframe=  134 fps=0.4 q=40.9 size=     512KiB time=00:00:02.64 bitrate=1588.9kbits/s speed=0.00854x elapsed=0:05:09.13    \nframe=  134 fps=0.4 q=40.9 size=     512KiB time=00:00:02.64 bitrate=1588.9kbits/s speed=0.00853x elapsed=0:05:09.66    \nframe=  135 fps=0.4 q=45.2 size=     512KiB time=00:00:02.66 bitrate=1576.9kbits/s speed=0.00858x elapsed=0:05:10.19    \nframe=  135 fps=0.4 q=45.2 size=     512KiB time=00:00:02.66 bitrate=1576.9kbits/s speed=0.00856x elapsed=0:05:10.71    \nframe=  135 fps=0.4 q=45.2 size=     512KiB time=00:00:02.66 bitrate=1576.9kbits/s speed=0.00855x elapsed=0:05:11.24    \nframe=  136 fps=0.4 q=47.7 size=     512KiB time=00:00:02.68 bitrate=1565.2kbits/s speed=0.0086x elapsed=0:05:11.75    \nframe=  136 fps=0.4 q=47.7 size=     512KiB time=00:00:02.68 bitrate=1565.2kbits/s speed=0.00858x elapsed=0:05:12.28    \nframe=  137 fps=0.4 q=47.6 size=     512KiB time=00:00:02.70 bitrate=1553.6kbits/s speed=0.00863x elapsed=0:05:12.80    \nframe=  138 fps=0.4 q=40.9 size=     512KiB time=00:00:02.72 bitrate=1542.2kbits/s speed=0.00868x elapsed=0:05:13.33    \nframe=  138 fps=0.4 q=40.9 size=     512KiB time=00:00:02.72 bitrate=1542.2kbits/s speed=0.00867x elapsed=0:05:13.87    \nframe=  138 fps=0.4 q=40.9 size=     512KiB time=00:00:02.72 bitrate=1542.2kbits/s speed=0.00865x elapsed=0:05:14.41    \nframe=  138 fps=0.4 q=40.9 size=     512KiB time=00:00:02.72 bitrate=1542.2kbits/s speed=0.00864x elapsed=0:05:14.93    \nframe=  139 fps=0.4 q=45.5 size=     512KiB time=00:00:02.74 bitrate=1530.9kbits/s speed=0.00869x elapsed=0:05:15.46    \nframe=  139 fps=0.4 q=45.5 size=     512KiB time=00:00:02.74 bitrate=1530.9kbits/s speed=0.00867x elapsed=0:05:16.01    \nframe=  139 fps=0.4 q=45.5 size=     512KiB time=00:00:02.74 bitrate=1530.9kbits/s speed=0.00865x elapsed=0:05:16.63    \nframe=  139 fps=0.4 q=45.5 size=     512KiB time=00:00:02.74 bitrate=1530.9kbits/s speed=0.00864x elapsed=0:05:17.23    \nframe=  139 fps=0.4 q=45.5 size=     512KiB time=00:00:02.74 bitrate=1530.9kbits/s speed=0.00862x elapsed=0:05:17.78    \nframe=  140 fps=0.4 q=47.7 size=     512KiB time=00:00:02.76 bitrate=1519.8kbits/s speed=0.00867x elapsed=0:05:18.39    \nframe=  140 fps=0.4 q=47.7 size=     512KiB time=00:00:02.76 bitrate=1519.8kbits/s speed=0.00865x elapsed=0:05:18.93    \nframe=  140 fps=0.4 q=47.7 size=     512KiB time=00:00:02.76 bitrate=1519.8kbits/s speed=0.00864x elapsed=0:05:19.49    \nframe=  140 fps=0.4 q=47.7 size=     512KiB time=00:00:02.76 bitrate=1519.8kbits/s speed=0.00862x elapsed=0:05:20.06    \nframe=  140 fps=0.4 q=47.7 size=     512KiB time=00:00:02.76 bitrate=1519.8kbits/s speed=0.00861x elapsed=0:05:20.59    \nframe=  141 fps=0.4 q=47.6 size=     512KiB time=00:00:02.78 bitrate=1508.9kbits/s speed=0.00866x elapsed=0:05:21.16    \nframe=  141 fps=0.4 q=47.6 size=     512KiB time=00:00:02.78 bitrate=1508.9kbits/s speed=0.00864x elapsed=0:05:21.73    \nframe=  141 fps=0.4 q=47.6 size=     512KiB time=00:00:02.78 bitrate=1508.9kbits/s speed=0.00863x elapsed=0:05:22.25    \nframe=  142 fps=0.4 q=41.1 size=     512KiB time=00:00:02.80 bitrate=1498.1kbits/s speed=0.00867x elapsed=0:05:22.78    \nframe=  142 fps=0.4 q=41.1 size=     512KiB time=00:00:02.80 bitrate=1498.1kbits/s speed=0.00866x elapsed=0:05:23.32    \nframe=  143 fps=0.4 q=45.8 size=     512KiB time=00:00:02.80 bitrate=1498.1kbits/s speed=0.00865x elapsed=0:05:23.87    \nframe=  143 fps=0.4 q=45.8 size=     512KiB time=00:00:02.82 bitrate=1487.5kbits/s speed=0.00869x elapsed=0:05:24.42    \nframe=  143 fps=0.4 q=45.8 size=     512KiB time=00:00:02.82 bitrate=1487.5kbits/s speed=0.00868x elapsed=0:05:24.98    \nframe=  143 fps=0.4 q=45.8 size=     512KiB time=00:00:02.82 bitrate=1487.5kbits/s speed=0.00866x elapsed=0:05:25.52    \nframe=  144 fps=0.4 q=46.7 size=     512KiB time=00:00:02.84 bitrate=1477.0kbits/s speed=0.00871x elapsed=0:05:26.07    \nframe=  144 fps=0.4 q=46.7 size=     512KiB time=00:00:02.84 bitrate=1477.0kbits/s speed=0.00869x elapsed=0:05:26.64    \nframe=  144 fps=0.4 q=46.7 size=     512KiB time=00:00:02.84 bitrate=1477.0kbits/s speed=0.00868x elapsed=0:05:27.15    \nframe=  144 fps=0.4 q=46.7 size=     512KiB time=00:00:02.84 bitrate=1477.0kbits/s speed=0.00867x elapsed=0:05:27.70    \nframe=  145 fps=0.4 q=46.5 size=     512KiB time=00:00:02.86 bitrate=1466.7kbits/s speed=0.00871x elapsed=0:05:28.27    \nframe=  145 fps=0.4 q=46.5 size=     512KiB time=00:00:02.86 bitrate=1466.7kbits/s speed=0.0087x elapsed=0:05:28.83    \nframe=  145 fps=0.4 q=46.5 size=     512KiB time=00:00:02.86 bitrate=1466.7kbits/s speed=0.00868x elapsed=0:05:29.41    \nframe=  145 fps=0.4 q=46.5 size=     512KiB time=00:00:02.86 bitrate=1466.7kbits/s speed=0.00867x elapsed=0:05:29.95    \nframe=  146 fps=0.4 q=46.7 size=     512KiB time=00:00:02.88 bitrate=1456.5kbits/s speed=0.00871x elapsed=0:05:30.48    \nframe=  146 fps=0.4 q=46.7 size=     512KiB time=00:00:02.88 bitrate=1456.5kbits/s speed=0.0087x elapsed=0:05:31.05    \nframe=  146 fps=0.4 q=46.7 size=     512KiB time=00:00:02.88 bitrate=1456.5kbits/s speed=0.00868x elapsed=0:05:31.64    \nframe=  146 fps=0.4 q=46.7 size=     512KiB time=00:00:02.88 bitrate=1456.5kbits/s speed=0.00867x elapsed=0:05:32.20    \nframe=  146 fps=0.4 q=46.7 size=     512KiB time=00:00:02.88 bitrate=1456.5kbits/s speed=0.00866x elapsed=0:05:32.73    \nframe=  146 fps=0.4 q=46.7 size=     512KiB time=00:00:02.88 bitrate=1456.5kbits/s speed=0.00864x elapsed=0:05:33.25    \nframe=  146 fps=0.4 q=46.7 size=     512KiB time=00:00:02.88 bitrate=1456.5kbits/s speed=0.00863x elapsed=0:05:33.77    \nframe=  147 fps=0.4 q=40.8 size=     512KiB time=00:00:02.90 bitrate=1446.4kbits/s speed=0.00867x elapsed=0:05:34.31    \nframe=  147 fps=0.4 q=40.8 size=     512KiB time=00:00:02.90 bitrate=1446.4kbits/s speed=0.00866x elapsed=0:05:34.86    \nframe=  147 fps=0.4 q=40.8 size=     512KiB time=00:00:02.90 bitrate=1446.4kbits/s speed=0.00865x elapsed=0:05:35.41    \nframe=  147 fps=0.4 q=40.8 size=     512KiB time=00:00:02.90 bitrate=1446.4kbits/s speed=0.00863x elapsed=0:05:35.95    \nframe=  148 fps=0.4 q=41.9 size=     512KiB time=00:00:02.92 bitrate=1436.5kbits/s speed=0.00868x elapsed=0:05:36.50    \nframe=  148 fps=0.4 q=41.9 size=     512KiB time=00:00:02.92 bitrate=1436.5kbits/s speed=0.00866x elapsed=0:05:37.08    \nframe=  148 fps=0.4 q=41.9 size=     512KiB time=00:00:02.92 bitrate=1436.5kbits/s speed=0.00865x elapsed=0:05:37.64    \nframe=  148 fps=0.4 q=41.9 size=     512KiB time=00:00:02.92 bitrate=1436.5kbits/s speed=0.00863x elapsed=0:05:38.20    \nframe=  148 fps=0.4 q=41.9 size=     512KiB time=00:00:02.92 bitrate=1436.5kbits/s speed=0.00862x elapsed=0:05:38.82    \nframe=  148 fps=0.4 q=41.9 size=     512KiB time=00:00:02.92 bitrate=1436.5kbits/s speed=0.0086x elapsed=0:05:39.38    \nframe=  149 fps=0.4 q=46.9 size=     512KiB time=00:00:02.94 bitrate=1426.8kbits/s speed=0.00865x elapsed=0:05:39.90    \nframe=  149 fps=0.4 q=46.9 size=     512KiB time=00:00:02.94 bitrate=1426.8kbits/s speed=0.00864x elapsed=0:05:40.41    \nframe=  149 fps=0.4 q=46.9 size=     512KiB time=00:00:02.94 bitrate=1426.8kbits/s speed=0.00862x elapsed=0:05:40.93    \nframe=  149 fps=0.4 q=46.9 size=     512KiB time=00:00:02.94 bitrate=1426.8kbits/s speed=0.00861x elapsed=0:05:41.48    \nframe=  149 fps=0.4 q=46.9 size=     512KiB time=00:00:02.94 bitrate=1426.8kbits/s speed=0.0086x elapsed=0:05:41.99    \nframe=  150 fps=0.4 q=46.9 size=     512KiB time=00:00:02.96 bitrate=1417.1kbits/s speed=0.00864x elapsed=0:05:42.50    \nframe=  150 fps=0.4 q=46.9 size=     512KiB time=00:00:02.96 bitrate=1417.1kbits/s speed=0.00863x elapsed=0:05:43.02    \nframe=  150 fps=0.4 q=46.9 size=     512KiB time=00:00:02.96 bitrate=1417.1kbits/s speed=0.00861x elapsed=0:05:43.61    \nframe=  150 fps=0.4 q=46.9 size=     512KiB time=00:00:02.96 bitrate=1417.1kbits/s speed=0.0086x elapsed=0:05:44.21    \nframe=  150 fps=0.4 q=46.9 size=     512KiB time=00:00:02.96 bitrate=1417.1kbits/s speed=0.00859x elapsed=0:05:44.78    \nframe=  151 fps=0.4 q=47.6 size=     512KiB time=00:00:02.96 bitrate=1417.1kbits/s speed=0.00857x elapsed=0:05:45.36    \nframe=  151 fps=0.4 q=47.6 size=     512KiB time=00:00:02.98 bitrate=1407.6kbits/s speed=0.00861x elapsed=0:05:45.97    \nframe=  151 fps=0.4 q=47.6 size=     512KiB time=00:00:02.98 bitrate=1407.6kbits/s speed=0.0086x elapsed=0:05:46.59    \nframe=  151 fps=0.4 q=47.6 size=     512KiB time=00:00:02.98 bitrate=1407.6kbits/s speed=0.00858x elapsed=0:05:47.11    \nframe=  151 fps=0.4 q=47.6 size=     512KiB time=00:00:02.98 bitrate=1407.6kbits/s speed=0.00857x elapsed=0:05:47.66    \nframe=  151 fps=0.4 q=47.6 size=     512KiB time=00:00:02.98 bitrate=1407.6kbits/s speed=0.00856x elapsed=0:05:48.26    \nframe=  151 fps=0.4 q=47.6 size=     512KiB time=00:00:02.98 bitrate=1407.6kbits/s speed=0.00854x elapsed=0:05:48.79    \nframe=  151 fps=0.4 q=47.6 size=     512KiB time=00:00:02.98 bitrate=1407.6kbits/s speed=0.00853x elapsed=0:05:49.31    \nframe=  152 fps=0.4 q=40.9 size=     512KiB time=00:00:03.00 bitrate=1398.2kbits/s speed=0.00858x elapsed=0:05:49.84    \nframe=  152 fps=0.4 q=40.9 size=     512KiB time=00:00:03.00 bitrate=1398.2kbits/s speed=0.00856x elapsed=0:05:50.41    \nframe=  152 fps=0.4 q=40.9 size=     512KiB time=00:00:03.00 bitrate=1398.2kbits/s speed=0.00855x elapsed=0:05:50.95    \nframe=  152 fps=0.4 q=40.9 size=     512KiB time=00:00:03.00 bitrate=1398.2kbits/s speed=0.00854x elapsed=0:05:51.48    \nframe=  153 fps=0.4 q=46.2 size=     512KiB time=00:00:03.02 bitrate=1389.0kbits/s speed=0.00858x elapsed=0:05:52.03    \nframe=  153 fps=0.4 q=46.2 size=     512KiB time=00:00:03.02 bitrate=1389.0kbits/s speed=0.00857x elapsed=0:05:52.57    \nframe=  153 fps=0.4 q=46.2 size=     512KiB time=00:00:03.02 bitrate=1389.0kbits/s speed=0.00855x elapsed=0:05:53.12    \nframe=  153 fps=0.4 q=46.2 size=     512KiB time=00:00:03.02 bitrate=1389.0kbits/s speed=0.00854x elapsed=0:05:53.68    \nframe=  154 fps=0.4 q=47.6 size=     512KiB time=00:00:03.04 bitrate=1379.8kbits/s speed=0.00858x elapsed=0:05:54.23    \nframe=  154 fps=0.4 q=47.6 size=     512KiB time=00:00:03.04 bitrate=1379.8kbits/s speed=0.00857x elapsed=0:05:54.77    \nframe=  154 fps=0.4 q=47.6 size=     512KiB time=00:00:03.04 bitrate=1379.8kbits/s speed=0.00856x elapsed=0:05:55.29    \nframe=  155 fps=0.4 q=47.5 size=     512KiB time=00:00:03.06 bitrate=1370.8kbits/s speed=0.0086x elapsed=0:05:55.82    \nframe=  155 fps=0.4 q=47.5 size=     512KiB time=00:00:03.06 bitrate=1370.8kbits/s speed=0.00859x elapsed=0:05:56.38    \nframe=  155 fps=0.4 q=47.5 size=     512KiB time=00:00:03.06 bitrate=1370.8kbits/s speed=0.00857x elapsed=0:05:56.97    \nframe=  155 fps=0.4 q=47.5 size=     512KiB time=00:00:03.06 bitrate=1370.8kbits/s speed=0.00856x elapsed=0:05:57.57    \nframe=  155 fps=0.4 q=47.5 size=     512KiB time=00:00:03.06 bitrate=1370.8kbits/s speed=0.00854x elapsed=0:05:58.16    \nframe=  155 fps=0.4 q=47.5 size=     512KiB time=00:00:03.06 bitrate=1370.8kbits/s speed=0.00853x elapsed=0:05:58.72    \nframe=  156 fps=0.4 q=47.6 size=     512KiB time=00:00:03.08 bitrate=1361.9kbits/s speed=0.00857x elapsed=0:05:59.24    \nframe=  156 fps=0.4 q=47.6 size=     512KiB time=00:00:03.08 bitrate=1361.9kbits/s speed=0.00856x elapsed=0:05:59.76    \nframe=  157 fps=0.4 q=41.1 size=     512KiB time=00:00:03.10 bitrate=1353.1kbits/s speed=0.0086x elapsed=0:06:00.29    \nframe=  157 fps=0.4 q=41.1 size=     512KiB time=00:00:03.10 bitrate=1353.1kbits/s speed=0.00859x elapsed=0:06:00.86    \nframe=  157 fps=0.4 q=41.1 size=     512KiB time=00:00:03.10 bitrate=1353.1kbits/s speed=0.00858x elapsed=0:06:01.42    \nframe=  158 fps=0.4 q=44.8 size=     512KiB time=00:00:03.12 bitrate=1344.4kbits/s speed=0.00862x elapsed=0:06:01.98    \nframe=  158 fps=0.4 q=44.8 size=     512KiB time=00:00:03.12 bitrate=1344.4kbits/s speed=0.00861x elapsed=0:06:02.51    \nframe=  158 fps=0.4 q=44.8 size=     512KiB time=00:00:03.12 bitrate=1344.4kbits/s speed=0.00859x elapsed=0:06:03.04    \nframe=  158 fps=0.4 q=44.8 size=     512KiB time=00:00:03.12 bitrate=1344.4kbits/s speed=0.00858x elapsed=0:06:03.59    \nframe=  158 fps=0.4 q=44.8 size=     512KiB time=00:00:03.12 bitrate=1344.4kbits/s speed=0.00857x elapsed=0:06:04.14    \nframe=  159 fps=0.4 q=47.4 size=     512KiB time=00:00:03.14 bitrate=1335.9kbits/s speed=0.00861x elapsed=0:06:04.72    \nframe=  159 fps=0.4 q=47.4 size=     512KiB time=00:00:03.14 bitrate=1335.9kbits/s speed=0.0086x elapsed=0:06:05.29    \nframe=  160 fps=0.4 q=47.5 size=     768KiB time=00:00:03.16 bitrate=1991.1kbits/s speed=0.00864x elapsed=0:06:05.84    \nframe=  160 fps=0.4 q=47.5 size=     768KiB time=00:00:03.16 bitrate=1991.1kbits/s speed=0.00863x elapsed=0:06:06.37    \nframe=  160 fps=0.4 q=47.5 size=     768KiB time=00:00:03.16 bitrate=1991.1kbits/s speed=0.00861x elapsed=0:06:06.93    \nframe=  161 fps=0.4 q=40.7 size=     768KiB time=00:00:03.16 bitrate=1991.1kbits/s speed=0.0086x elapsed=0:06:07.49    \nframe=  161 fps=0.4 q=40.7 size=     768KiB time=00:00:03.18 bitrate=1978.6kbits/s speed=0.00864x elapsed=0:06:08.06    \nframe=  161 fps=0.4 q=40.7 size=     768KiB time=00:00:03.18 bitrate=1978.6kbits/s speed=0.00863x elapsed=0:06:08.60    \nframe=  161 fps=0.4 q=40.7 size=     768KiB time=00:00:03.18 bitrate=1978.6kbits/s speed=0.00862x elapsed=0:06:09.12    \nframe=  162 fps=0.4 q=45.6 size=     768KiB time=00:00:03.20 bitrate=1966.2kbits/s speed=0.00866x elapsed=0:06:09.66    \nframe=  162 fps=0.4 q=45.6 size=     768KiB time=00:00:03.20 bitrate=1966.2kbits/s speed=0.00864x elapsed=0:06:10.19    \nframe=  162 fps=0.4 q=45.6 size=     768KiB time=00:00:03.20 bitrate=1966.2kbits/s speed=0.00863x elapsed=0:06:10.73    \nframe=  164 fps=0.4 q=47.7 size=     768KiB time=00:00:03.24 bitrate=1941.9kbits/s speed=0.00873x elapsed=0:06:11.25    \nframe=  164 fps=0.4 q=47.7 size=     768KiB time=00:00:03.24 bitrate=1941.9kbits/s speed=0.00872x elapsed=0:06:11.77    \nframe=  164 fps=0.4 q=47.7 size=     768KiB time=00:00:03.24 bitrate=1941.9kbits/s speed=0.0087x elapsed=0:06:12.33    \nframe=  164 fps=0.4 q=47.7 size=     768KiB time=00:00:03.24 bitrate=1941.9kbits/s speed=0.00869x elapsed=0:06:12.85    \nframe=  165 fps=0.4 q=40.8 size=     768KiB time=00:00:03.26 bitrate=1930.0kbits/s speed=0.00873x elapsed=0:06:13.38    \nframe=  166 fps=0.4 q=45.2 size=     768KiB time=00:00:03.28 bitrate=1918.2kbits/s speed=0.00877x elapsed=0:06:13.90    \nframe=  166 fps=0.4 q=45.2 size=     768KiB time=00:00:03.28 bitrate=1918.2kbits/s speed=0.00876x elapsed=0:06:14.42    \nframe=  167 fps=0.4 q=47.7 size=     768KiB time=00:00:03.30 bitrate=1906.6kbits/s speed=0.0088x elapsed=0:06:14.93    \nframe=  167 fps=0.4 q=47.7 size=     768KiB time=00:00:03.30 bitrate=1906.6kbits/s speed=0.00879x elapsed=0:06:15.44    \nframe=  168 fps=0.4 q=47.7 size=     768KiB time=00:00:03.32 bitrate=1895.1kbits/s speed=0.00883x elapsed=0:06:15.97    \nframe=  169 fps=0.4 q=40.8 size=     768KiB time=00:00:03.34 bitrate=1883.8kbits/s speed=0.00887x elapsed=0:06:16.49    \nframe=  170 fps=0.5 q=45.6 size=     768KiB time=00:00:03.36 bitrate=1872.6kbits/s speed=0.00891x elapsed=0:06:17.01    \nframe=  171 fps=0.5 q=47.7 size=     768KiB time=00:00:03.38 bitrate=1861.5kbits/s speed=0.00895x elapsed=0:06:17.53    \nframe=  171 fps=0.5 q=47.7 size=     768KiB time=00:00:03.38 bitrate=1861.5kbits/s speed=0.00894x elapsed=0:06:18.05    \nframe=  172 fps=0.5 q=47.8 size=     768KiB time=00:00:03.40 bitrate=1850.5kbits/s speed=0.00898x elapsed=0:06:18.55    \nframe=  173 fps=0.5 q=40.8 size=     768KiB time=00:00:03.42 bitrate=1839.7kbits/s speed=0.00902x elapsed=0:06:19.07    \nframe=  174 fps=0.5 q=45.4 size=     768KiB time=00:00:03.44 bitrate=1829.0kbits/s speed=0.00906x elapsed=0:06:19.60    \nframe=  175 fps=0.5 q=47.6 size=     768KiB time=00:00:03.46 bitrate=1818.4kbits/s speed=0.0091x elapsed=0:06:20.12    \nframe=  175 fps=0.5 q=47.6 size=     768KiB time=00:00:03.46 bitrate=1818.4kbits/s speed=0.00909x elapsed=0:06:20.65    \nframe=  176 fps=0.5 q=47.8 size=     768KiB time=00:00:03.48 bitrate=1808.0kbits/s speed=0.00913x elapsed=0:06:21.16    \nframe=  177 fps=0.5 q=40.8 size=     768KiB time=00:00:03.50 bitrate=1797.7kbits/s speed=0.00917x elapsed=0:06:21.69    \nframe=  178 fps=0.5 q=45.3 size=     768KiB time=00:00:03.52 bitrate=1787.4kbits/s speed=0.00921x elapsed=0:06:22.22    \nframe=  178 fps=0.5 q=45.3 size=     768KiB time=00:00:03.52 bitrate=1787.4kbits/s speed=0.0092x elapsed=0:06:22.73    \nframe=  179 fps=0.5 q=47.8 size=     768KiB time=00:00:03.54 bitrate=1777.3kbits/s speed=0.00924x elapsed=0:06:23.25    \nframe=  180 fps=0.5 q=47.6 size=     768KiB time=00:00:03.56 bitrate=1767.4kbits/s speed=0.00928x elapsed=0:06:23.79    \nframe=  180 fps=0.5 q=47.6 size=     768KiB time=00:00:03.56 bitrate=1767.4kbits/s speed=0.00926x elapsed=0:06:24.31    \nframe=  181 fps=0.5 q=40.7 size=     768KiB time=00:00:03.58 bitrate=1757.5kbits/s speed=0.0093x elapsed=0:06:24.84    \nframe=  182 fps=0.5 q=45.6 size=     768KiB time=00:00:03.60 bitrate=1747.7kbits/s speed=0.00934x elapsed=0:06:25.36    \nframe=  182 fps=0.5 q=45.6 size=     768KiB time=00:00:03.60 bitrate=1747.7kbits/s speed=0.00933x elapsed=0:06:25.88    \nframe=  183 fps=0.5 q=47.6 size=     768KiB time=00:00:03.62 bitrate=1738.1kbits/s speed=0.00937x elapsed=0:06:26.41    \nframe=  184 fps=0.5 q=47.5 size=     768KiB time=00:00:03.64 bitrate=1728.5kbits/s speed=0.00941x elapsed=0:06:26.94    \nframe=  184 fps=0.5 q=47.5 size=     768KiB time=00:00:03.64 bitrate=1728.5kbits/s speed=0.00939x elapsed=0:06:27.46    \nframe=  185 fps=0.5 q=40.7 size=     768KiB time=00:00:03.66 bitrate=1719.1kbits/s speed=0.00943x elapsed=0:06:27.98    \nframe=  186 fps=0.5 q=45.6 size=     768KiB time=00:00:03.68 bitrate=1709.7kbits/s speed=0.00947x elapsed=0:06:28.52    \nframe=  186 fps=0.5 q=45.6 size=     768KiB time=00:00:03.68 bitrate=1709.7kbits/s speed=0.00946x elapsed=0:06:29.04    \nframe=  187 fps=0.5 q=47.6 size=     768KiB time=00:00:03.70 bitrate=1700.5kbits/s speed=0.0095x elapsed=0:06:29.56    \nframe=  188 fps=0.5 q=47.6 size=     768KiB time=00:00:03.72 bitrate=1691.3kbits/s speed=0.00954x elapsed=0:06:30.08    \nframe=  190 fps=0.5 q=45.3 size=     768KiB time=00:00:03.74 bitrate=1682.3kbits/s speed=0.00957x elapsed=0:06:30.61    \nframe=  190 fps=0.5 q=45.3 size=     768KiB time=00:00:03.76 bitrate=1673.4kbits/s speed=0.00961x elapsed=0:06:31.12    \nframe=  192 fps=0.5 q=47.4 size=     768KiB time=00:00:03.80 bitrate=1655.7kbits/s speed=0.0097x elapsed=0:06:31.64    \nframe=  192 fps=0.5 q=47.4 size=     768KiB time=00:00:03.80 bitrate=1655.7kbits/s speed=0.00969x elapsed=0:06:32.17    \nframe=  192 fps=0.5 q=47.4 size=     768KiB time=00:00:03.80 bitrate=1655.7kbits/s speed=0.00968x elapsed=0:06:32.70    \nframe=  192 fps=0.5 q=47.4 size=     768KiB time=00:00:03.80 bitrate=1655.7kbits/s speed=0.00966x elapsed=0:06:33.24    \nframe=  192 fps=0.5 q=47.4 size=     768KiB time=00:00:03.80 bitrate=1655.7kbits/s speed=0.00965x elapsed=0:06:33.78    \nframe=  193 fps=0.5 q=40.7 size=     768KiB time=00:00:03.82 bitrate=1647.1kbits/s speed=0.00969x elapsed=0:06:34.30    \nframe=  193 fps=0.5 q=40.7 size=     768KiB time=00:00:03.82 bitrate=1647.1kbits/s speed=0.00967x elapsed=0:06:34.86    \nframe=  193 fps=0.5 q=40.7 size=     768KiB time=00:00:03.82 bitrate=1647.1kbits/s speed=0.00966x elapsed=0:06:35.40    \nframe=  194 fps=0.5 q=45.6 size=     768KiB time=00:00:03.84 bitrate=1638.5kbits/s speed=0.0097x elapsed=0:06:35.94    \nframe=  194 fps=0.5 q=45.6 size=     768KiB time=00:00:03.84 bitrate=1638.5kbits/s speed=0.00969x elapsed=0:06:36.47    \nframe=  195 fps=0.5 q=47.7 size=     768KiB time=00:00:03.86 bitrate=1630.0kbits/s speed=0.00972x elapsed=0:06:37.01    \nframe=  196 fps=0.5 q=47.6 size=     768KiB time=00:00:03.88 bitrate=1621.6kbits/s speed=0.00976x elapsed=0:06:37.53    \nframe=  197 fps=0.5 q=40.9 size=     768KiB time=00:00:03.90 bitrate=1613.3kbits/s speed=0.0098x elapsed=0:06:38.04    \nframe=  198 fps=0.5 q=45.6 size=     768KiB time=00:00:03.92 bitrate=1605.1kbits/s speed=0.00984x elapsed=0:06:38.56    \nframe=  198 fps=0.5 q=45.6 size=     768KiB time=00:00:03.92 bitrate=1605.1kbits/s speed=0.00982x elapsed=0:06:39.08    \nframe=  199 fps=0.5 q=47.5 size=     768KiB time=00:00:03.94 bitrate=1596.9kbits/s speed=0.00986x elapsed=0:06:39.59    \nframe=  200 fps=0.5 q=47.6 size=     768KiB time=00:00:03.96 bitrate=1588.8kbits/s speed=0.0099x elapsed=0:06:40.11    \nframe=  201 fps=0.5 q=41.0 size=     768KiB time=00:00:03.98 bitrate=1580.9kbits/s speed=0.00993x elapsed=0:06:40.61    \nframe=  202 fps=0.5 q=45.7 size=     768KiB time=00:00:04.00 bitrate=1573.0kbits/s speed=0.00997x elapsed=0:06:41.14    \nframe=  203 fps=0.5 q=47.7 size=     768KiB time=00:00:04.02 bitrate=1565.1kbits/s speed=0.01x elapsed=0:06:41.66    \nframe=  204 fps=0.5 q=47.0 size=     768KiB time=00:00:04.04 bitrate=1557.4kbits/s speed=0.01x elapsed=0:06:42.18    \nframe=  204 fps=0.5 q=47.0 size=     768KiB time=00:00:04.04 bitrate=1557.4kbits/s speed=0.01x elapsed=0:06:42.69    \nframe=  206 fps=0.5 q=45.7 size=     768KiB time=00:00:04.08 bitrate=1542.1kbits/s speed=0.0101x elapsed=0:06:43.21    \nframe=  206 fps=0.5 q=45.7 size=     768KiB time=00:00:04.08 bitrate=1542.1kbits/s speed=0.0101x elapsed=0:06:43.73    \nframe=  207 fps=0.5 q=47.8 size=     768KiB time=00:00:04.10 bitrate=1534.6kbits/s speed=0.0101x elapsed=0:06:44.25    \nframe=  208 fps=0.5 q=47.9 size=     768KiB time=00:00:04.12 bitrate=1527.1kbits/s speed=0.0102x elapsed=0:06:44.77    \nframe=  208 fps=0.5 q=47.9 size=     768KiB time=00:00:04.12 bitrate=1527.1kbits/s speed=0.0102x elapsed=0:06:45.30    \nframe=  210 fps=0.5 q=45.5 size=     768KiB time=00:00:04.16 bitrate=1512.5kbits/s speed=0.0103x elapsed=0:06:45.83    \nframe=  210 fps=0.5 q=45.5 size=     768KiB time=00:00:04.16 bitrate=1512.5kbits/s speed=0.0102x elapsed=0:06:46.33    \nframe=  211 fps=0.5 q=47.6 size=     768KiB time=00:00:04.18 bitrate=1505.2kbits/s speed=0.0103x elapsed=0:06:46.89    \nframe=  212 fps=0.5 q=47.6 size=     768KiB time=00:00:04.20 bitrate=1498.0kbits/s speed=0.0103x elapsed=0:06:47.41    \nframe=  213 fps=0.5 q=40.9 size=     768KiB time=00:00:04.22 bitrate=1490.9kbits/s speed=0.0103x elapsed=0:06:47.93    \nframe=  214 fps=0.5 q=45.3 size=    1024KiB time=00:00:04.24 bitrate=1978.5kbits/s speed=0.0104x elapsed=0:06:48.47    \nframe=  214 fps=0.5 q=45.3 size=    1024KiB time=00:00:04.24 bitrate=1978.5kbits/s speed=0.0104x elapsed=0:06:48.99    \nframe=  215 fps=0.5 q=47.5 size=    1024KiB time=00:00:04.26 bitrate=1969.2kbits/s speed=0.0104x elapsed=0:06:49.53    \nframe=  216 fps=0.5 q=47.7 size=    1024KiB time=00:00:04.28 bitrate=1960.0kbits/s speed=0.0104x elapsed=0:06:50.04    \nframe=  216 fps=0.5 q=47.7 size=    1024KiB time=00:00:04.28 bitrate=1960.0kbits/s speed=0.0104x elapsed=0:06:50.56    \nframe=  217 fps=0.5 q=41.2 size=    1024KiB time=00:00:04.30 bitrate=1950.9kbits/s speed=0.0105x elapsed=0:06:51.07    \nframe=  218 fps=0.5 q=45.3 size=    1024KiB time=00:00:04.32 bitrate=1941.9kbits/s speed=0.0105x elapsed=0:06:51.59    \nframe=  218 fps=0.5 q=45.3 size=    1024KiB time=00:00:04.32 bitrate=1941.9kbits/s speed=0.0105x elapsed=0:06:52.14    \nframe=  218 fps=0.5 q=45.3 size=    1024KiB time=00:00:04.32 bitrate=1941.9kbits/s speed=0.0105x elapsed=0:06:52.67    \nframe=  220 fps=0.5 q=46.8 size=    1024KiB time=00:00:04.36 bitrate=1924.1kbits/s speed=0.0106x elapsed=0:06:53.19    \nframe=  221 fps=0.5 q=41.0 size=    1024KiB time=00:00:04.38 bitrate=1915.3kbits/s speed=0.0106x elapsed=0:06:53.72    \nframe=  222 fps=0.5 q=45.2 size=    1024KiB time=00:00:04.40 bitrate=1906.6kbits/s speed=0.0106x elapsed=0:06:54.24    \nframe=  223 fps=0.5 q=47.3 size=    1024KiB time=00:00:04.42 bitrate=1898.0kbits/s speed=0.0107x elapsed=0:06:54.77    \nframe=  224 fps=0.5 q=47.5 size=    1024KiB time=00:00:04.44 bitrate=1889.4kbits/s speed=0.0107x elapsed=0:06:55.27    \nframe=  224 fps=0.5 q=47.5 size=    1024KiB time=00:00:04.44 bitrate=1889.4kbits/s speed=0.0107x elapsed=0:06:55.79    \nframe=  225 fps=0.5 q=41.0 size=    1024KiB time=00:00:04.46 bitrate=1880.9kbits/s speed=0.0107x elapsed=0:06:56.31    \nframe=  226 fps=0.5 q=45.2 size=    1024KiB time=00:00:04.48 bitrate=1872.5kbits/s speed=0.0107x elapsed=0:06:56.83    \nframe=  226 fps=0.5 q=45.2 size=    1024KiB time=00:00:04.48 bitrate=1872.5kbits/s speed=0.0107x elapsed=0:06:57.35    \nframe=  228 fps=0.5 q=47.6 size=    1024KiB time=00:00:04.52 bitrate=1856.0kbits/s speed=0.0108x elapsed=0:06:57.87    \nframe=  228 fps=0.5 q=47.6 size=    1024KiB time=00:00:04.52 bitrate=1856.0kbits/s speed=0.0108x elapsed=0:06:58.39    \nframe=  229 fps=0.5 q=41.2 size=    1024KiB time=00:00:04.54 bitrate=1847.8kbits/s speed=0.0108x elapsed=0:06:58.90    \nframe=  231 fps=0.6 q=47.6 size=    1024KiB time=00:00:04.58 bitrate=1831.7kbits/s speed=0.0109x elapsed=0:06:59.42    \nframe=  231 fps=0.6 q=47.6 size=    1024KiB time=00:00:04.58 bitrate=1831.7kbits/s speed=0.0109x elapsed=0:06:59.93    \nframe=  232 fps=0.6 q=47.5 size=    1024KiB time=00:00:04.60 bitrate=1823.7kbits/s speed=0.0109x elapsed=0:07:00.45    \nframe=  233 fps=0.6 q=41.2 size=    1024KiB time=00:00:04.62 bitrate=1815.8kbits/s speed=0.011x elapsed=0:07:00.96    \nframe=  234 fps=0.6 q=45.2 size=    1024KiB time=00:00:04.64 bitrate=1808.0kbits/s speed=0.011x elapsed=0:07:01.48    \nframe=  235 fps=0.6 q=46.8 size=    1024KiB time=00:00:04.66 bitrate=1800.2kbits/s speed=0.011x elapsed=0:07:02.00    \nframe=  235 fps=0.6 q=46.8 size=    1024KiB time=00:00:04.66 bitrate=1800.2kbits/s speed=0.011x elapsed=0:07:02.50    \nframe=  236 fps=0.6 q=46.7 size=    1024KiB time=00:00:04.68 bitrate=1792.5kbits/s speed=0.0111x elapsed=0:07:03.02    \nframe=  237 fps=0.6 q=41.3 size=    1024KiB time=00:00:04.70 bitrate=1784.9kbits/s speed=0.0111x elapsed=0:07:03.55    \nframe=  237 fps=0.6 q=41.3 size=    1024KiB time=00:00:04.70 bitrate=1784.9kbits/s speed=0.0111x elapsed=0:07:04.07    \nframe=  238 fps=0.6 q=44.9 size=    1024KiB time=00:00:04.72 bitrate=1777.3kbits/s speed=0.0111x elapsed=0:07:04.60    \nframe=  239 fps=0.6 q=46.8 size=    1024KiB time=00:00:04.74 bitrate=1769.8kbits/s speed=0.0111x elapsed=0:07:05.11    \nframe=  239 fps=0.6 q=46.8 size=    1024KiB time=00:00:04.74 bitrate=1769.8kbits/s speed=0.0111x elapsed=0:07:05.62    \nframe=  240 fps=0.6 q=46.7 size=    1024KiB time=00:00:04.76 bitrate=1762.4kbits/s speed=0.0112x elapsed=0:07:06.14    \nframe=  241 fps=0.6 q=41.6 size=    1024KiB time=00:00:04.78 bitrate=1755.0kbits/s speed=0.0112x elapsed=0:07:06.66    \nframe=  243 fps=0.6 q=45.6 size=    1024KiB time=00:00:04.82 bitrate=1740.4kbits/s speed=0.0113x elapsed=0:07:07.18    \nframe=  243 fps=0.6 q=45.6 size=    1024KiB time=00:00:04.82 bitrate=1740.4kbits/s speed=0.0113x elapsed=0:07:07.70    \nframe=  244 fps=0.6 q=45.0 size=    1024KiB time=00:00:04.84 bitrate=1733.3kbits/s speed=0.0113x elapsed=0:07:08.22    \nframe=  245 fps=0.6 q=44.9 size=    1024KiB time=00:00:04.86 bitrate=1726.1kbits/s speed=0.0113x elapsed=0:07:08.73    \nframe=  245 fps=0.6 q=44.9 size=    1024KiB time=00:00:04.86 bitrate=1726.1kbits/s speed=0.0113x elapsed=0:07:09.25    \nframe=  245 fps=0.6 q=44.9 size=    1024KiB time=00:00:04.86 bitrate=1726.1kbits/s speed=0.0113x elapsed=0:07:09.76    \nframe=  246 fps=0.6 q=42.2 size=    1024KiB time=00:00:04.88 bitrate=1719.0kbits/s speed=0.0113x elapsed=0:07:10.27    \nframe=  247 fps=0.6 q=43.4 size=    1024KiB time=00:00:04.90 bitrate=1712.0kbits/s speed=0.0114x elapsed=0:07:10.80    \nframe=  249 fps=0.6 q=42.1 size=    1024KiB time=00:00:04.94 bitrate=1698.2kbits/s speed=0.0115x elapsed=0:07:11.33    \n[mp4 @ 000002ed7280aa40] Starting second pass: moving the moov atom to the beginning of the file\n[out#0/mp4 @ 000002ed72897d80] video:1205KiB audio:0KiB subtitle:0KiB other streams:0KiB global headers:2KiB muxing overhead: 0.531930%\nframe=  250 fps=0.6 q=43.2 Lsize=    1211KiB time=00:00:04.96 bitrate=2000.9kbits/s speed=0.0115x elapsed=0:07:11.37    \nx265 [info]: frame I:      1, Avg QP:44.31  kb/s: 6742.80 \nx265 [info]: frame P:     60, Avg QP:41.72  kb/s: 5693.27 \nx265 [info]: frame B:    189, Avg QP:46.61  kb/s: 766.46  \nx265 [info]: Weighted P-Frames: Y:0.0% UV:0.0%\n\nencoded 250 frames in 430.79s (0.58 fps), 1972.80 kb/s, Avg QP:45.43\n",
  "seconds": 431.8044638633728,
  "probe_out": {}
}